<?xml version="1.0" standalone="no"?>
<!DOCTYPE svg PUBLIC "-//W3C//DTD SVG 20010904//EN"
 "http://www.w3.org/TR/2001/REC-SVG-20010904/DTD/svg10.dtd">
<svg version="1.0" xmlns="http://www.w3.org/2000/svg"
 width="903.000000pt" height="903.000000pt" viewBox="0 0 903.000000 903.000000"
 preserveAspectRatio="xMidYMid meet">
<metadata>
Created by potrace 1.14, written by Peter Selinger 2001-2017
</metadata>
<g transform="translate(0.000000,903.000000) scale(0.100000,-0.100000)"
fill="#000000" stroke="none">
<path d="M0 4567 l0 -4463 37 4 c87 9 163 9 163 1 0 -5 -6 -9 -14 -9 -8 0 -16
-5 -18 -12 -3 -7 -32 -13 -76 -14 -40 -2 -77 -6 -82 -9 -6 -3 -10 -19 -10 -35
l0 -29 2059 -1 c1706 0 2061 2 2068 13 9 16 81 49 138 65 56 16 129 25 203 26
61 1 62 1 62 30 0 22 4 27 16 22 9 -3 18 -6 20 -6 3 0 9 -11 14 -25 13 -34 50
-34 50 0 0 18 5 25 18 25 19 0 69 -46 64 -58 -1 -4 7 -8 18 -10 15 -3 23 3 27
17 6 24 33 29 33 6 0 -9 9 -26 20 -38 14 -14 19 -30 15 -44 l-5 -23 1434 0
1434 0 17 48 c10 26 23 64 31 85 16 43 19 113 5 122 -5 3 -16 -2 -24 -10 -24
-23 -41 -18 -62 17 -15 26 -20 57 -23 140 l-4 108 28 -15 c42 -20 88 -30 80
-17 -8 13 -64 42 -81 42 -19 0 -25 24 -25 92 l0 61 38 -6 c20 -3 53 -8 72 -11
19 -3 4 5 -34 18 l-69 23 3 84 c2 46 2 93 1 104 -5 81 0 229 9 246 6 11 10 36
8 54 -1 19 1 35 5 36 4 0 40 -9 80 -20 39 -12 90 -26 112 -32 22 -6 60 -17 85
-25 50 -14 392 -104 428 -112 13 -2 37 -21 53 -42 17 -21 46 -46 65 -56 19
-10 34 -21 34 -25 0 -3 -11 -16 -25 -29 -14 -13 -25 -28 -25 -33 0 -6 -8 -19
-17 -30 -14 -15 -18 -39 -19 -123 -1 -57 -6 -116 -11 -131 -6 -15 -17 -48 -24
-73 -7 -25 -22 -54 -33 -64 -19 -20 -19 -20 8 -29 18 -6 36 -6 49 1 12 6 42
13 67 17 25 3 64 9 87 12 28 4 56 0 85 -12 25 -10 68 -17 105 -16 35 0 63 -3
63 -7 0 -16 59 -34 128 -39 l72 -6 0 37 c0 40 3 38 -57 21 -19 -5 -23 -2 -23
18 0 19 8 26 40 37 l40 13 0 149 c0 97 -4 147 -10 143 -5 -3 -10 -14 -10 -24
0 -26 -61 -53 -83 -36 -9 7 -17 17 -17 22 0 15 41 49 83 68 l37 17 0 160 0
159 -30 10 -30 11 18 30 c9 17 23 32 30 35 18 7 18 5019 0 5026 -10 3 -10 9
-1 26 10 16 13 313 13 1391 l0 1370 -1909 0 c-1684 0 -1910 -2 -1921 -15 -7
-8 -16 -15 -21 -15 -5 0 -9 7 -9 15 0 12 -16 15 -82 15 l-83 0 29 -23 c50 -40
21 -49 -35 -11 l-51 34 -2073 0 -2072 0 -7 -31 c-8 -41 -42 -37 -38 4 l3 27
-381 0 -380 0 0 -4463z m8040 4388 c-13 -16 -40 -21 -40 -7 0 10 42 32 49 26
2 -2 -2 -10 -9 -19z m-1378 -8 c-13 -14 -22 -36 -22 -55 0 -20 -7 -36 -22 -46
-20 -14 -24 -14 -40 1 -10 9 -18 19 -18 23 0 10 74 86 91 93 29 11 32 6 11
-16z m2128 15 c0 -17 -59 -62 -74 -56 -23 9 -20 19 12 43 27 20 62 28 62 13z
m-2295 -33 c0 -22 -4 -24 -55 -27 -37 -2 -61 2 -75 12 -19 14 -17 15 26 16 25
0 54 7 65 15 25 19 39 14 39 -16z m1045 -10 c0 -17 -20 -29 -20 -11 0 4 -3 18
-7 32 -6 22 -5 24 10 11 9 -7 17 -22 17 -32z m-6750 14 c-1 -28 -28 -59 -41
-46 -8 8 -4 18 13 36 29 31 28 31 28 10z m2110 7 c0 -5 -4 -10 -10 -10 -5 0
-10 5 -10 10 0 6 5 10 10 10 6 0 10 -4 10 -10z m1054 4 c9 -3 14 -10 11 -14
-6 -10 -55 0 -55 11 0 10 21 12 44 3z m4346 -34 c0 -5 -4 -10 -10 -10 -5 0
-10 5 -10 10 0 6 5 10 10 10 6 0 10 -4 10 -10z m-2023 -52 c14 -16 14 -18 -1
-24 -9 -3 -23 -1 -31 6 -8 6 -24 9 -37 5 -18 -5 -20 -4 -8 4 10 7 11 11 3 11
-13 0 -18 32 -7 43 8 8 59 -21 81 -45z m-5637 6 c0 -13 -4 -24 -9 -24 -11 0
-22 40 -15 52 9 15 24 -2 24 -28z m910 21 c0 -8 -14 -24 -31 -34 -33 -20 -67
-13 -88 21 -10 16 -8 16 14 8 17 -6 34 -5 57 5 42 18 48 18 48 0z m1384 9 c9
-3 16 -12 16 -18 0 -7 16 -27 35 -46 38 -36 43 -50 21 -50 -8 0 -24 15 -35 33
-11 18 -29 42 -41 52 -30 27 -28 41 4 29z m-1864 -18 c0 -7 -7 -19 -15 -26
-16 -13 -20 -3 -9 24 8 20 24 21 24 2z m7440 -5 c0 -5 -7 -14 -15 -21 -18 -15
-42 1 -31 19 8 13 46 15 46 2z m-7193 -7 c-3 -3 -12 -4 -19 -1 -8 3 -5 6 6 6
11 1 17 -2 13 -5z m7325 -15 c38 -27 30 -34 -21 -18 -40 12 -48 19 -34 32 11
11 23 8 55 -14z m-5471 -20 c26 -14 15 -29 -22 -29 -31 0 -36 9 -17 28 15 15
15 15 39 1z m2531 -4 c0 -5 -5 -11 -11 -13 -6 -2 -11 4 -11 13 0 9 5 15 11 13
6 -2 11 -8 11 -13z m-5112 -61 c0 -19 -16 -18 -24 2 -11 27 -7 37 9 24 8 -7
15 -19 15 -26z m6076 -4 c1 -46 -3 -52 -27 -40 -19 11 -27 59 -12 74 18 17 38
-1 39 -34z m-1451 20 c-3 -5 -16 -10 -28 -10 -18 0 -19 2 -7 10 20 13 43 13
35 0z m-2869 -27 c-10 -10 -19 5 -10 18 6 11 8 11 12 0 2 -7 1 -15 -2 -18z
m200 10 c23 -31 17 -43 -18 -39 -33 4 -38 17 -16 43 14 17 18 16 34 -4z m5749
7 c9 -14 -13 -50 -30 -50 -18 0 -20 31 -3 48 15 15 25 15 33 2z m-4472 -42 c4
-24 9 -55 13 -69 5 -24 3 -27 -35 -33 -44 -7 -71 -35 -71 -75 0 -16 -23 -48
-70 -97 -55 -58 -70 -81 -70 -104 0 -25 -4 -30 -24 -30 -27 0 -28 2 -47 138
-9 62 -9 86 0 95 13 13 15 72 2 95 -5 9 -11 35 -13 57 -3 37 -1 40 23 43 22 3
28 -3 42 -38 l16 -41 30 16 c17 8 37 29 46 45 13 25 21 29 67 33 29 2 60 4 69
5 12 2 18 -9 22 -40z m213 15 c-10 -10 -19 5 -10 18 6 11 8 11 12 0 2 -7 1
-15 -2 -18z m1047 20 c-18 -2 -48 -2 -65 0 -18 2 -4 4 32 4 36 0 50 -2 33 -4z
m-3233 -58 c0 -19 -4 -37 -10 -40 -6 -4 -10 12 -10 40 0 28 4 44 10 40 6 -3
10 -21 10 -40z m-70 15 c0 -5 -4 -10 -10 -10 -5 0 -10 5 -10 10 0 6 5 10 10
10 6 0 10 -4 10 -10z m3904 -11 c-3 -5 -10 -7 -15 -3 -5 3 -7 10 -3 15 3 5 10
7 15 3 5 -3 7 -10 3 -15z m-5526 -31 c-5 -32 -28 -35 -28 -4 0 17 5 26 16 26
10 0 14 -7 12 -22z m402 2 c0 -5 -2 -10 -4 -10 -3 0 -8 5 -11 10 -3 6 -1 10 4
10 6 0 11 -4 11 -10z m3450 0 c0 -5 -2 -10 -4 -10 -3 0 -8 5 -11 10 -3 6 -1
10 4 10 6 0 11 -4 11 -10z m-2680 -20 c0 -23 -25 -27 -33 -6 -7 16 1 26 20 26
7 0 13 -9 13 -20z m6320 -40 c0 -5 -4 -10 -10 -10 -5 0 -10 5 -10 10 0 6 5 10
10 10 6 0 10 -4 10 -10z m-4720 -81 c0 -4 -9 -9 -20 -12 -16 -4 -19 -11 -14
-35 3 -16 1 -40 -6 -52 -12 -22 -12 -22 -41 11 -39 44 -39 105 0 67 10 -11 18
-7 39 18 24 26 41 28 42 3z m970 19 c-1 -7 -12 -26 -25 -42 -22 -28 -26 -29
-49 -16 -32 17 -32 26 -3 51 25 21 77 26 77 7z m-496 -80 c3 -29 10 -97 16
-150 15 -142 2 -159 -63 -83 -21 24 -43 59 -49 77 -6 18 -19 42 -29 53 -9 11
-21 42 -25 70 -6 43 -5 48 8 38 8 -7 30 -14 49 -15 31 -3 35 0 44 30 6 20 16
32 26 32 14 0 19 -12 23 -52z m2515 22 c17 -41 9 -65 -19 -50 -25 13 -43 47
-36 66 9 25 40 15 55 -16z m-414 10 c4 -6 -11 -10 -37 -10 -31 0 -39 3 -28 10
20 13 57 13 65 0z m57 -2 c-9 -9 -15 -9 -24 0 -9 9 -7 12 12 12 19 0 21 -3 12
-12z m-3382 -2 c0 -3 -4 -8 -10 -11 -5 -3 -10 -1 -10 4 0 6 5 11 10 11 6 0 10
-2 10 -4z m3105 -6 c7 -12 -24 -19 -100 -22 l-60 -3 1 -42 c1 -45 -2 -49 -26
-33 -11 7 -11 10 -2 10 9 0 12 11 10 33 l-3 32 -72 -3 c-45 -1 -73 2 -73 8 0
6 29 10 68 11 111 1 224 8 230 14 8 8 20 6 27 -5z m-1502 -34 c38 -29 14 -61
-76 -101 -67 -29 -67 -29 -67 -12 0 12 107 127 119 127 3 0 14 -7 24 -14z
m1162 5 c-12 -11 -355 -19 -355 -9 0 4 51 9 113 11 61 1 143 4 182 5 42 1 65
-2 60 -7z m-515 -23 c0 -5 -19 -8 -42 -8 -24 0 -38 4 -31 8 15 9 73 9 73 0z
m1774 -29 c-24 -27 -29 -16 -8 16 10 16 20 23 22 16 2 -7 -4 -21 -14 -32z
m-5664 11 c0 -5 -7 -7 -15 -4 -8 4 -12 10 -9 15 6 11 24 2 24 -11z m1297 -22
c-3 -7 -5 -2 -5 12 0 14 2 19 5 13 2 -7 2 -19 0 -25z m685 -10 c-9 -9 -12 -7
-12 12 0 19 3 21 12 12 9 -9 9 -15 0 -24z m3038 28 c0 -3 -4 -8 -10 -11 -5 -3
-10 -1 -10 4 0 6 5 11 10 11 6 0 10 -2 10 -4z m302 -18 c-6 -6 -15 -8 -19 -4
-4 4 -1 11 7 16 19 12 27 3 12 -12z m-5392 -13 c0 -8 -4 -15 -10 -15 -5 0 -10
7 -10 15 0 8 5 15 10 15 6 0 10 -7 10 -15z m4707 9 c-3 -3 -12 -4 -19 -1 -8 3
-5 6 6 6 11 1 17 -2 13 -5z m-3025 -49 c22 -29 -6 -33 -41 -6 -30 23 -20 46
12 28 12 -6 25 -16 29 -22z m358 -6 c0 -10 -72 -69 -83 -69 -11 0 2 81 15 97
8 10 17 9 39 -4 16 -10 29 -21 29 -24z m1944 18 c16 -11 14 -13 -11 -11 -36 3
-35 2 -28 14 8 13 18 13 39 -3z m926 -36 c-1 -13 -2 -13 -11 2 -13 22 -74 24
-83 2 -3 -8 -15 -15 -26 -15 -29 0 -27 39 3 42 12 0 34 2 50 3 15 1 31 5 34 9
9 9 33 -23 33 -43z m-2175 8 c0 -15 -7 -25 -18 -27 -22 -4 -33 24 -17 43 18
21 35 13 35 -16z m-826 -18 c-8 -22 -14 -29 -19 -20 -5 7 -1 23 7 36 21 31 26
24 12 -16z m482 -24 c-6 -6 -11 -19 -11 -30 0 -14 5 -17 20 -12 20 6 28 -9 10
-20 -5 -3 -10 -16 -10 -28 0 -18 -9 -25 -44 -36 -25 -7 -63 -28 -85 -48 l-41
-35 0 71 c0 63 2 71 19 71 10 0 21 6 24 14 3 7 21 16 41 20 38 7 75 45 77 80
1 14 3 11 6 -8 3 -16 0 -33 -6 -39z m1669 54 c0 -12 -20 -25 -27 -18 -7 7 6
27 18 27 5 0 9 -4 9 -9z m127 3 c-3 -3 -12 -4 -19 -1 -8 3 -5 6 6 6 11 1 17
-2 13 -5z m1961 -6 c-6 -18 -25 -20 -31 -3 -5 10 0 15 14 15 12 0 19 -5 17
-12z m-1888 -17 c0 -5 12 -12 28 -14 15 -3 7 -4 -17 -3 -44 1 -74 26 -32 26
12 0 21 -4 21 -9z m-106 -42 c-7 -12 -31 -11 -38 0 -4 5 -3 17 0 26 6 15 8 15
25 -1 10 -9 16 -21 13 -25z m-4174 -4 c0 -16 -42 -27 -54 -15 -6 6 -3 17 9 30
14 15 21 17 32 9 7 -6 13 -17 13 -24z m3890 21 c0 -8 13 -16 30 -18 20 -3 30
0 30 9 0 7 5 13 10 13 15 0 12 -15 -7 -32 -20 -17 -52 -16 -63 2 -5 7 -20 9
-44 5 -29 -6 -36 -4 -36 8 0 18 14 25 53 26 17 1 27 -4 27 -13z m2862 -2 c-16
-11 -32 -14 -50 -9 -25 7 -25 8 -7 15 11 5 33 9 50 9 l29 1 -22 -16z m-5572
-4 c0 -5 -7 -7 -15 -4 -8 4 -15 8 -15 10 0 2 7 4 15 4 8 0 15 -4 15 -10z m905
-23 c8 -19 11 -43 8 -55 -7 -30 13 -85 43 -113 l26 -24 19 24 c23 28 35 21 44
-30 6 -31 3 -38 -19 -53 -14 -9 -26 -21 -26 -27 0 -8 5 -8 15 1 8 6 18 9 24 6
14 -9 1 -46 -20 -59 -11 -7 -19 -16 -19 -21 0 -5 -10 -20 -22 -33 -29 -31
-127 -33 -175 -3 -42 25 -42 40 1 40 28 0 36 5 44 29 11 31 57 48 79 29 7 -5
22 -6 35 -2 18 6 10 10 -41 18 l-63 11 -19 49 c-10 27 -27 59 -39 71 -28 30
-27 50 3 33 37 -21 87 -36 92 -28 6 9 -63 70 -80 70 -24 0 -28 20 -8 42 15 18
72 58 81 58 2 0 9 -15 17 -33z m2619 24 c3 -4 -3 -16 -14 -26 -20 -18 -25 -11
-14 19 7 18 20 21 28 7z m-2862 -23 c-7 -7 -12 -8 -12 -2 0 14 12 26 19 19 2
-3 -1 -11 -7 -17z m2915 -3 c3 -9 3 -19 -1 -22 -7 -7 -36 16 -36 28 0 15 30
10 37 -6z m1682 -41 c33 -20 35 -22 23 -42 -12 -18 -45 -3 -39 18 3 13 0 16
-14 13 -11 -3 -19 -10 -19 -15 0 -6 -7 -5 -15 2 -15 12 -21 61 -9 73 3 3 14
-3 23 -12 10 -10 32 -27 50 -37z m-1459 25 c0 -6 -4 -7 -10 -4 -5 3 -10 11
-10 16 0 6 5 7 10 4 6 -3 10 -11 10 -16z m1510 11 c0 -5 -4 -10 -10 -10 -5 0
-10 5 -10 10 0 6 5 10 10 10 6 0 10 -4 10 -10z m-2045 -10 c3 -5 -1 -10 -9
-10 -8 0 -18 5 -21 10 -3 6 1 10 9 10 8 0 18 -4 21 -10z m953 -32 c3 -21 -1
-28 -13 -28 -11 0 -15 5 -11 15 3 9 0 15 -9 15 -8 0 -15 7 -15 16 0 10 7 14
23 12 16 -2 23 -11 25 -30z m-518 -3 c0 -29 -12 -32 -34 -9 -23 22 -20 34 9
34 20 0 25 -5 25 -25z m930 14 c0 -17 -32 -38 -57 -39 -33 0 -28 18 10 34 41
18 47 19 47 5z m-3973 -5 c28 -8 20 -24 -12 -24 -32 0 -56 10 -49 21 6 10 29
11 61 3z m1072 -35 c22 -28 23 -33 11 -70 -18 -54 -41 -73 -79 -64 -40 9 -48
23 -22 41 12 8 21 23 21 33 0 24 28 91 38 90 4 0 18 -14 31 -30z m1287 15 l33
-16 -27 -22 c-39 -33 -77 -38 -99 -13 -10 11 -13 18 -7 14 6 -3 18 3 27 14 9
10 12 19 6 19 -5 0 -7 5 -4 10 9 14 32 12 71 -6z m89 7 c17 -7 17 -8 -8 -15
-30 -7 -51 0 -42 15 7 11 22 11 50 0z m1905 -1 c0 -5 -2 -10 -4 -10 -3 0 -8 5
-11 10 -3 6 -1 10 4 10 6 0 11 -4 11 -10z m-2220 -15 c0 -8 7 -15 15 -15 8 0
15 -4 15 -9 0 -13 -61 -11 -77 2 -23 18 -14 37 17 37 20 0 30 -5 30 -15z
m2730 -29 c-14 -14 -24 0 -16 21 6 15 8 15 16 3 6 -9 5 -19 0 -24z m-2340 14
c0 -5 -7 -10 -15 -10 -8 0 -15 5 -15 10 0 6 7 10 15 10 8 0 15 -4 15 -10z
m153 -9 c11 -11 -35 -59 -50 -54 -10 3 -13 -11 -13 -50 0 -46 -3 -55 -17 -53
-9 2 -19 8 -21 14 -2 7 -10 12 -17 12 -20 0 -26 30 -13 66 8 22 19 34 30 34
10 0 18 6 18 13 0 33 55 45 83 18z m1706 4 c26 8 39 -15 16 -31 -20 -15 -95
-16 -95 -1 0 6 7 19 17 29 12 13 19 15 29 7 7 -6 22 -8 33 -4z m2112 -26 c21
-13 -4 -39 -36 -39 -18 0 -47 -3 -65 -6 -28 -6 -32 -4 -28 12 2 11 17 22 40
29 21 6 46 18 55 28 17 17 18 17 22 0 2 -10 7 -21 12 -24z m-6569 16 c0 -5 -5
-11 -11 -13 -6 -2 -11 4 -11 13 0 9 5 15 11 13 6 -2 11 -8 11 -13z m2303 5 c3
-5 -1 -10 -9 -10 -8 0 -18 5 -21 10 -3 6 1 10 9 10 8 0 18 -4 21 -10z m2544
-8 c-10 -2 -20 -13 -24 -25 -4 -14 -8 -17 -12 -9 -7 17 26 54 41 44 7 -4 5 -8
-5 -10z m-1389 -12 c0 -5 -7 -10 -15 -10 -8 0 -15 5 -15 10 0 6 7 10 15 10 8
0 15 -4 15 -10z m564 -27 c-8 -44 -20 -61 -33 -47 -13 12 10 84 27 84 9 0 11
-10 6 -37z m739 12 c-3 -9 -8 -14 -10 -11 -3 3 -2 9 2 15 9 16 15 13 8 -4z
m270 -16 c-17 -17 -37 -1 -22 17 8 10 15 12 23 4 7 -7 7 -13 -1 -21z m1370 7
c7 -16 -1 -26 -20 -26 -7 0 -13 9 -13 20 0 23 25 27 33 6z m-6584 -9 c11 4 13
3 6 -4 -18 -19 -55 -26 -55 -10 0 19 12 29 23 18 5 -5 17 -7 26 -4z m4145 -7
c15 -14 -2 -40 -27 -40 -28 0 -47 17 -47 43 0 16 5 18 33 12 17 -4 36 -11 41
-15z m547 5 c-2 -12 -51 -26 -51 -15 0 11 32 30 43 27 5 -1 8 -7 8 -12z
m-1511 -11 c0 -9 -11 -27 -24 -39 l-24 -22 2 26 c0 14 5 31 11 38 15 18 35 16
35 -3z m2515 7 c3 -5 1 -12 -5 -16 -5 -3 -10 1 -10 9 0 18 6 21 15 7z m-6954
-44 c-7 -7 -25 -12 -41 -13 -22 -1 -30 3 -30 15 0 31 19 40 52 24 22 -11 27
-18 19 -26z m5019 33 c13 -9 12 -12 -4 -25 -11 -8 -25 -15 -32 -15 -17 0 -24
26 -11 39 14 14 27 14 47 1z m-1190 -26 c0 -8 -9 -14 -20 -14 -23 0 -25 6 -7
24 14 16 27 11 27 -10z m1475 16 c3 -5 4 -14 0 -20 -8 -13 -35 -1 -35 16 0 16
26 19 35 4z m-1310 -10 c16 -26 -30 -70 -72 -70 -23 0 -14 19 13 26 17 4 22
10 16 16 -6 6 -8 17 -5 24 6 16 39 19 48 4z m2441 -11 c8 -14 -14 -29 -33 -22
-7 3 -13 11 -13 19 0 17 36 19 46 3z m-4996 -14 c0 -8 -4 -15 -10 -15 -5 0
-10 7 -10 15 0 8 5 15 10 15 6 0 10 -7 10 -15z m2823 -15 c-3 -11 -9 -23 -14
-26 -5 -3 -9 -25 -9 -50 0 -31 -4 -44 -14 -44 -20 0 -27 27 -10 40 18 16 18
34 -1 50 -25 20 -17 38 18 43 17 2 33 5 34 5 0 1 -1 -7 -4 -18z m2117 6 c0 -8
-6 -16 -12 -18 -18 -7 -88 3 -88 11 0 16 15 21 57 21 30 0 43 -4 43 -14z
m-2782 -62 c23 -9 42 -22 42 -29 0 -15 38 -50 46 -43 7 7 -21 64 -36 73 -11 7
-14 45 -4 45 3 0 18 -12 33 -27 48 -51 110 -103 120 -103 5 0 12 -9 16 -19 3
-11 13 -22 22 -25 12 -5 13 -9 3 -21 -14 -17 -46 -20 -55 -5 -4 6 -16 8 -27 4
-22 -7 -68 29 -68 54 0 9 -7 13 -19 9 -13 -3 -29 5 -47 24 -15 16 -33 29 -39
29 -13 0 -43 33 -62 67 -20 35 -15 41 10 11 12 -15 41 -35 65 -44z m819 -21
c6 -38 8 -70 6 -73 -7 -8 -21 22 -27 61 -4 25 -12 39 -21 39 -28 0 -5 36 26
39 3 1 10 -29 16 -66z m1515 57 c2 -5 1 -45 -2 -87 -4 -70 -7 -78 -25 -78 -18
0 -20 8 -23 67 -2 37 2 77 8 88 11 21 36 27 42 10z m-4452 -30 c20 -28 20 -31
4 -37 -11 -4 -22 1 -30 13 -7 10 -18 24 -24 31 -15 18 -12 23 9 23 11 0 29
-14 41 -30z m1725 20 c3 -5 -1 -10 -9 -10 -9 0 -16 5 -16 10 0 6 4 10 9 10 6
0 13 -4 16 -10z m4695 -5 c0 -8 -4 -15 -10 -15 -5 0 -10 7 -10 15 0 8 5 15 10
15 6 0 10 -7 10 -15z m-8340 -14 c0 -12 -20 -25 -27 -18 -7 7 6 27 18 27 5 0
9 -4 9 -9z m6003 -18 c7 -36 -8 -52 -29 -31 -10 10 -14 23 -9 37 9 30 32 26
38 -6z m-4368 8 c3 -5 1 -12 -5 -16 -5 -3 -10 1 -10 9 0 18 6 21 15 7z m925
-1 c0 -5 -12 -10 -26 -10 -14 0 -23 4 -19 10 3 6 15 10 26 10 10 0 19 -4 19
-10z m145 0 c3 -5 1 -10 -4 -10 -6 0 -11 5 -11 10 0 6 2 10 4 10 3 0 8 -4 11
-10z m1011 -32 c10 -24 27 -49 36 -56 20 -14 24 -47 7 -57 -18 -11 -53 4 -73
31 -14 20 -16 28 -6 34 8 5 10 20 5 49 -9 54 7 53 31 -1z m3009 31 c4 -5 -1
-19 -11 -30 -21 -23 -84 -27 -84 -5 0 33 79 62 95 35z m-2778 -29 c25 -50 -31
-70 -60 -21 -16 27 -16 29 6 39 29 14 40 10 54 -18z m4477 -47 c-9 -90 -8 -86
-17 -101 -16 -24 -27 0 -27 58 0 69 13 110 35 110 13 0 15 -10 9 -67z m-3950
48 c7 -11 -22 -23 -35 -15 -5 3 -9 9 -9 15 0 12 37 12 44 0z m1256 -13 c25
-28 26 -59 0 -89 -17 -21 -21 -22 -30 -9 -17 25 -12 120 6 120 2 0 12 -10 24
-22z m-1130 -4 c0 -8 -4 -12 -10 -9 -5 3 -10 10 -10 16 0 5 5 9 10 9 6 0 10
-7 10 -16z m774 -8 c9 -13 7 -20 -8 -31 -23 -18 -36 -11 -36 19 0 40 23 46 44
12z m-4274 5 c0 -18 -17 -20 -36 -6 -18 14 -18 14 9 15 15 0 27 -4 27 -9z
m3720 -38 c0 -7 -4 -13 -10 -13 -5 0 -10 12 -10 28 0 21 2 24 10 12 5 -8 10
-21 10 -27z m-4830 16 c0 -6 7 -8 16 -5 8 3 13 2 10 -3 -7 -10 -66 -12 -66 -2
0 12 12 21 27 21 7 0 13 -5 13 -11z m1976 -3 c7 -8 31 -17 53 -21 30 -5 41
-12 45 -31 4 -13 13 -24 20 -24 8 0 16 -9 19 -20 4 -16 14 -20 49 -20 l43 0
-33 20 c-51 31 -32 44 58 37 43 -3 82 -2 87 3 12 11 101 39 107 33 2 -3 -2
-20 -11 -38 -13 -26 -25 -36 -59 -44 -23 -6 -57 -9 -76 -6 l-33 5 30 -10 c17
-6 48 -9 70 -8 38 3 40 2 45 -33 4 -20 16 -53 28 -73 l22 -38 -30 -28 c-17
-16 -45 -36 -63 -45 -31 -15 -31 -15 -72 25 -38 37 -45 40 -91 38 -48 -3 -49
-3 -52 29 -3 25 -9 34 -34 42 -21 7 -28 15 -24 26 3 8 0 15 -7 15 -19 1 -53
33 -70 67 -9 16 -27 37 -41 46 -13 9 -27 26 -31 37 -7 21 -7 20 -30 -6 -18
-21 -26 -24 -41 -16 -18 10 -17 11 9 21 15 6 27 15 27 21 0 15 69 12 86 -4z
m2554 -12 c0 -8 -4 -14 -10 -14 -5 0 -10 9 -10 21 0 11 5 17 10 14 6 -3 10
-13 10 -21z m107 -8 c-4 -9 -14 -16 -22 -16 -9 0 -14 3 -12 8 2 4 7 16 11 26
5 14 10 16 18 8 6 -6 8 -18 5 -26z m-2838 -31 c-33 -49 -58 -71 -44 -39 4 10
10 33 13 51 3 23 10 33 26 35 35 6 36 -1 5 -47z m2961 28 c29 -27 57 -105 32
-89 -7 4 -12 14 -12 22 0 8 -4 14 -9 14 -10 0 -14 -10 -25 -62 -4 -16 -11 -28
-16 -28 -6 0 -10 -7 -10 -15 0 -8 6 -12 14 -9 7 3 16 -1 19 -9 9 -23 -38 -28
-52 -5 -6 10 -11 21 -11 25 0 5 5 1 10 -7 7 -11 10 -5 10 23 0 36 -13 50 -23
25 -3 -7 -6 -4 -6 7 -1 11 -8 33 -17 50 -11 21 -12 31 -3 34 6 2 21 14 32 27
26 30 30 30 67 -3z m3580 -23 c0 -38 -4 -52 -19 -59 -24 -13 -31 -5 -31 36 0
41 15 73 35 73 11 0 15 -13 15 -50z m-2320 20 c0 -13 -7 -20 -18 -20 -24 0
-32 8 -25 26 8 22 43 17 43 -6z m-2180 -5 c0 -8 -4 -15 -10 -15 -5 0 -10 7
-10 15 0 8 5 15 10 15 6 0 10 -7 10 -15z m-2875 -25 c-3 -5 -11 -10 -16 -10
-6 0 -7 5 -4 10 3 6 11 10 16 10 6 0 7 -4 4 -10z m149 -20 c-4 -18 -1 -36 6
-45 17 -20 5 -32 -15 -15 -15 12 -21 71 -8 83 15 15 22 5 17 -23z m3736 -2 c0
-5 -4 -8 -10 -8 -5 0 -10 10 -10 23 0 18 2 19 10 7 5 -8 10 -18 10 -22z m1050
22 c0 -5 -2 -10 -4 -10 -3 0 -8 5 -11 10 -3 6 -1 10 4 10 6 0 11 -4 11 -10z
m-5680 -26 c0 -8 -4 -12 -10 -9 -5 3 -10 10 -10 16 0 5 5 9 10 9 6 0 10 -7 10
-16z m619 -26 c-16 -70 -28 -79 -29 -22 0 52 5 64 26 64 9 0 10 -10 3 -42z
m391 32 c0 -5 7 -10 15 -10 8 0 17 -11 21 -25 9 -36 -3 -43 -17 -11 -7 14 -18
26 -24 26 -7 0 -18 7 -25 15 -10 13 -9 15 9 15 11 0 21 -4 21 -10z m6960 2 c0
-16 -32 -52 -41 -47 -5 4 -9 17 -9 31 0 19 5 24 25 24 14 0 25 -3 25 -8z
m-7282 -46 c6 -24 22 -57 35 -72 23 -26 26 -27 56 -14 34 14 56 43 48 64 -3 7
-2 19 3 26 5 9 13 4 25 -18 10 -17 29 -35 43 -41 18 -9 23 -17 18 -34 -3 -12
1 -47 10 -78 13 -45 21 -57 44 -66 22 -8 31 -7 44 5 20 21 29 11 20 -23 -12
-47 -61 -60 -174 -46 -52 6 -122 14 -155 17 -33 3 -63 8 -68 11 -11 6 1 93 14
109 6 8 4 14 -7 18 -14 5 -16 16 -11 59 7 63 25 127 35 127 4 0 13 -20 20 -44z
m251 35 c12 -8 12 -12 2 -25 -16 -19 -31 -12 -31 15 0 21 7 23 29 10z m2401
-11 c0 -5 -7 -10 -15 -10 -8 0 -15 5 -15 10 0 6 7 10 15 10 8 0 15 -4 15 -10z
m89 -19 c28 -21 21 -41 -14 -41 -17 0 -25 -7 -28 -22 -3 -20 -5 -19 -20 14 -9
20 -14 44 -11 52 8 21 44 20 73 -3z m-1957 -33 c-15 -15 -26 -4 -18 18 5 13 9
15 18 6 9 -9 9 -15 0 -24z m2911 16 c8 -8 -3 -34 -14 -34 -5 0 -9 9 -9 20 0
19 11 26 23 14z m-3300 -79 c-9 -26 -21 -16 -25 21 -4 36 -4 36 13 15 10 -12
15 -29 12 -36z m2216 14 c13 -17 21 -32 19 -35 -6 -5 -68 56 -68 68 0 14 25
-3 49 -33z m2846 30 c4 -6 4 -27 0 -47 l-7 -37 -14 25 c-18 33 -18 70 0 70 8
0 18 -5 21 -11z m-4426 -16 c-7 -10 -15 -20 -16 -22 -2 -2 -3 5 -3 17 0 14 6
22 16 22 14 0 15 -3 3 -17z m-1974 -13 c10 -11 15 -26 11 -36 -6 -15 -10 -14
-36 11 -17 16 -30 32 -30 37 0 16 37 8 55 -12z m1680 10 c-3 -5 -11 -10 -16
-10 -6 0 -7 5 -4 10 3 6 11 10 16 10 6 0 7 -4 4 -10z m106 -4 c13 7 59 -34 59
-53 0 -8 12 -13 29 -13 26 0 41 -14 41 -39 0 -4 -24 -15 -54 -24 -30 -10 -59
-24 -66 -32 -7 -8 -21 -15 -31 -15 -10 0 -21 -4 -24 -10 -15 -25 -23 -5 -22
58 1 37 -2 77 -6 88 -11 31 17 58 44 44 11 -6 24 -8 30 -4z m1994 -8 c34 -22
45 -38 26 -38 -18 0 -71 35 -71 48 0 17 5 15 45 -10z m4378 -5 c4 -7 24 -13
43 -13 31 0 35 -3 32 -22 -4 -29 -34 -34 -82 -14 -30 12 -36 20 -36 45 0 25 3
29 18 24 9 -4 21 -12 25 -20z m-3326 -5 c-3 -8 -6 -5 -6 6 -1 11 2 17 5 13 3
-3 4 -12 1 -19z m1225 -25 c3 -38 3 -38 51 -41 43 -3 48 -5 45 -25 -3 -20 -9
-22 -68 -22 -59 0 -65 2 -79 27 -14 24 -14 30 2 62 22 48 45 47 49 -1z m2408
20 c-1 -18 -22 -53 -32 -53 -11 0 -15 38 -6 54 12 21 38 21 38 -1z m-4302 -10
c12 -10 24 -31 27 -48 l6 -30 -23 26 c-21 25 -32 28 -82 20 -5 0 -6 -14 -3
-30 10 -48 -35 -73 -47 -26 -11 44 -76 30 -76 -16 0 -42 -27 -49 -54 -14 -20
25 -27 27 -64 22 -56 -7 -57 15 -2 43 22 11 40 24 40 29 0 19 71 34 186 39 56
2 75 -1 92 -15z m-3425 -82 c10 -29 16 -56 13 -58 -9 -10 -62 30 -84 63 -33
50 -29 62 16 55 34 -6 38 -10 55 -60z m6467 39 c0 -20 -5 -30 -15 -30 -10 0
-15 10 -15 30 0 20 5 30 15 30 10 0 15 -10 15 -30z m-2290 -38 c0 -9 -6 -12
-15 -8 -9 3 -15 0 -15 -7 0 -8 -15 -29 -32 -48 -30 -31 -38 -34 -81 -31 -37 2
-51 8 -63 27 -27 41 -13 52 69 60 76 7 125 24 77 26 l-25 1 25 7 c28 8 60 -7
60 -27z m1530 12 c0 -17 -11 -18 -33 -1 -16 11 -15 12 8 13 15 1 25 -3 25 -12z
m-4867 -53 c-10 -38 -27 -41 -31 -5 -4 29 31 78 36 51 2 -8 -1 -29 -5 -46z
m3635 17 c-2 -13 -7 -23 -13 -23 -5 0 -11 10 -13 23 -2 15 2 22 13 22 11 0 15
-7 13 -22z m2370 -22 c-4 -19 0 -26 19 -31 20 -5 23 -11 20 -39 -5 -42 -12
-53 -45 -70 -54 -27 -152 -31 -152 -5 0 11 57 36 102 44 47 7 57 22 24 35 -27
10 -33 24 -15 35 5 4 14 18 19 31 12 32 34 31 28 0z m-5423 4 c3 -5 1 -28 -5
-51 -10 -36 -14 -40 -33 -34 -12 4 -34 9 -49 12 -46 9 -28 38 30 49 18 4 32
13 32 20 0 16 16 19 25 4z m143 -13 c2 -10 -3 -17 -12 -17 -10 0 -16 9 -16 21
0 24 23 21 28 -4z m4116 -5 c2 -4 -2 -15 -9 -25 -11 -16 -13 -16 -19 -1 -10
25 14 48 28 26z m500 -5 c17 -13 17 -15 2 -46 -21 -40 -36 -32 -36 20 0 42 6
46 34 26z m-799 -7 c3 -6 -1 -7 -9 -4 -18 7 -21 14 -7 14 6 0 13 -4 16 -10z
m85 -54 c0 -9 -28 -7 -33 2 -2 4 -7 20 -11 36 l-7 29 25 -31 c15 -16 26 -33
26 -36z m-5465 33 c11 -17 -1 -21 -15 -4 -8 9 -8 15 -2 15 6 0 14 -5 17 -11z
m1275 -4 c0 -22 -51 -96 -61 -89 -17 10 -9 42 17 73 28 34 44 39 44 16z m3940
-62 c0 -10 -14 -14 -52 -12 -29 1 -74 -5 -100 -12 -51 -14 -71 -7 -47 15 16
16 88 38 100 30 4 -2 13 6 20 18 7 13 17 26 22 30 12 7 57 -48 57 -69z m-1389
20 c186 -170 227 -224 239 -316 4 -35 16 -84 27 -108 11 -24 23 -56 26 -71 4
-16 12 -28 17 -28 6 0 10 -13 10 -30 0 -29 -2 -30 -45 -30 -30 0 -47 -5 -53
-16 -5 -9 -28 -18 -53 -21 -66 -9 -94 -27 -128 -86 -27 -47 -36 -55 -84 -70
-67 -21 -137 -22 -185 -1 -51 22 -190 11 -304 -23 -78 -24 -88 -29 -88 -50 0
-26 -25 -31 -34 -7 -5 14 -12 12 -43 -12 -43 -33 -124 -44 -172 -23 -37 16
-71 77 -78 141 -4 33 -14 55 -34 76 -24 24 -28 35 -21 53 14 40 5 56 -29 51
l-31 -5 3 76 c2 42 0 79 -3 83 -12 12 16 30 56 37 49 8 51 10 36 47 -12 29
-11 33 13 56 28 25 47 31 47 13 0 -26 16 3 18 33 4 54 70 96 277 173 203 76
281 91 472 94 l103 1 41 -37z m-2969 -5 c17 3 20 0 15 -20 -4 -12 -7 -33 -7
-46 0 -19 -4 -22 -27 -19 -20 2 -29 10 -31 25 -2 12 -8 22 -13 22 -10 0 -12
53 -2 63 3 4 15 -1 26 -10 10 -10 28 -16 39 -15z m218 25 c0 -5 -7 -17 -15
-27 -14 -19 -15 -19 -15 7 0 17 5 27 15 27 8 0 15 -3 15 -7z m-897 -17 c26
-20 21 -24 -30 -24 -50 1 -83 12 -83 28 0 15 92 11 113 -4z m827 -1 c16 -20 6
-45 -19 -45 -11 0 -29 -10 -41 -22 -31 -33 -37 -12 -10 37 25 46 48 56 70 30z
m-663 -5 c46 0 54 -3 51 -17 -5 -26 -66 -53 -120 -53 -52 0 -61 8 -52 44 6 25
27 37 52 30 8 -2 38 -4 69 -4z m4114 -15 c38 0 31 -19 -25 -68 -62 -53 -78
-49 -39 8 17 25 22 40 15 43 -9 3 -9 9 -1 24 9 16 13 18 20 7 4 -7 18 -14 30
-14z m1059 -5 c0 -5 -4 -10 -10 -10 -5 0 -10 5 -10 10 0 6 5 10 10 10 6 0 10
-4 10 -10z m465 1 c3 -5 1 -12 -5 -16 -5 -3 -10 1 -10 9 0 18 6 21 15 7z
m-5470 -28 c-3 -16 -17 -55 -30 -88 -12 -33 -26 -73 -29 -88 l-7 -28 -67 61
c-37 34 -67 66 -67 72 0 5 17 16 38 23 21 7 55 24 75 38 68 46 97 49 87 10z
m4785 -24 c0 -5 -9 -9 -19 -9 -12 0 -23 11 -30 30 l-10 31 29 -21 c17 -12 30
-26 30 -31z m875 21 c0 -12 -10 -29 -22 -37 -20 -14 -23 -14 -29 0 -7 19 24
69 40 64 6 -2 11 -14 11 -27z m1288 13 c-7 -2 -19 -2 -25 0 -7 3 -2 5 12 5 14
0 19 -2 13 -5z m-3073 -21 c0 -5 -9 -17 -19 -26 -22 -20 -40 -4 -21 19 13 16
40 20 40 7z m780 -1 c0 -5 16 -12 36 -15 20 -4 34 -12 31 -19 -6 -19 -54 -26
-91 -13 l-35 12 22 22 c23 23 37 28 37 13z m446 -28 c-3 -3 -13 -3 -22 1 -13
5 -14 9 -3 22 11 14 13 14 22 -1 5 -9 6 -19 3 -22z m254 -15 c0 -4 -9 -8 -20
-8 -15 0 -20 7 -20 27 0 25 0 26 20 8 11 -10 20 -22 20 -27z m-1340 16 c0 -8
-5 -12 -10 -9 -6 4 -8 11 -5 16 9 14 15 11 15 -7z m100 -9 c0 -14 6 -25 13
-25 8 0 22 -9 33 -21 18 -20 18 -21 0 -35 -16 -11 -22 -11 -40 1 -11 8 -40 15
-63 15 -24 0 -43 3 -43 7 0 13 74 83 87 83 7 0 13 -11 13 -25z m1324 19 c23
-9 20 -34 -4 -34 -13 0 -20 7 -20 20 0 22 1 23 24 14z m966 -14 c0 -5 -8 -10
-17 -10 -15 0 -16 2 -3 10 19 12 20 12 20 0z m-7015 -10 c3 -5 -1 -10 -9 -10
-9 0 -16 5 -16 10 0 6 4 10 9 10 6 0 13 -4 16 -10z m924 -7 c8 -15 13 -15 36
-5 36 17 44 15 38 -8 -3 -11 -9 -20 -13 -20 -5 0 -25 -15 -45 -34 -33 -31 -36
-32 -45 -16 -11 21 -13 83 -3 93 11 11 21 8 32 -10z m6491 2 c-6 -8 -20 -17
-31 -20 -10 -4 -19 -13 -19 -21 0 -8 -4 -14 -9 -14 -11 0 -3 39 12 58 5 6 21
12 34 12 21 0 23 -2 13 -15z m60 11 c0 -2 -19 -24 -42 -48 -23 -24 -53 -66
-67 -93 -23 -46 -29 -50 -51 -44 -51 14 -80 10 -80 -11 0 -11 3 -19 8 -18 4 1
22 -6 40 -15 31 -17 32 -17 32 3 0 11 5 20 10 20 14 0 12 -40 -2 -45 -9 -4
-12 -24 -10 -65 3 -48 1 -60 -11 -60 -14 0 -27 -18 -33 -48 -1 -6 6 -18 15
-25 25 -17 56 -67 42 -67 -6 0 -11 5 -11 10 0 6 -6 10 -14 10 -8 0 -17 8 -20
18 -3 10 -19 23 -36 29 -16 6 -30 16 -30 22 0 6 7 8 15 5 10 -4 18 3 25 22 6
16 15 31 20 34 5 3 12 19 16 35 l7 30 -21 -25 -20 -25 -8 39 c-4 22 -7 48 -8
58 -1 9 -9 27 -20 39 -16 19 -16 25 -5 47 8 14 32 37 54 51 22 14 42 29 43 34
2 4 10 7 18 7 16 0 19 -26 4 -35 -5 -3 -10 -18 -9 -33 1 -27 1 -27 12 5 7 17
22 40 35 51 12 11 22 27 22 36 0 9 7 16 15 16 8 0 15 4 15 8 0 5 10 14 23 20
27 13 27 13 27 8z m-7246 -41 c-37 -27 -55 -34 -74 -29 -32 7 -34 10 -27 29 4
8 16 15 28 15 15 0 19 -5 15 -15 -8 -21 1 -19 32 10 15 14 38 25 51 25 21 0
18 -5 -25 -35z m139 -7 c54 -38 87 -71 124 -121 34 -46 40 -72 11 -48 -7 6
-28 22 -45 37 -18 14 -33 32 -33 39 0 7 -26 36 -57 64 -59 51 -58 70 0 29z
m6637 -9 c0 -5 -9 -9 -20 -9 -19 0 -26 11 -14 23 8 8 34 -3 34 -14z m-2750 -9
c0 -5 -4 -10 -10 -10 -5 0 -10 5 -10 10 0 6 5 10 10 10 6 0 10 -4 10 -10z
m-3980 -10 c0 -5 -2 -10 -4 -10 -3 0 -8 5 -11 10 -3 6 -1 10 4 10 6 0 11 -4
11 -10z m-786 -51 c-21 -23 -33 -24 -41 -3 -9 23 25 48 44 32 11 -9 11 -14 -3
-29z m1349 26 c4 -8 2 -17 -2 -19 -5 -3 -8 -18 -8 -33 0 -15 -6 -29 -12 -31
-6 -2 -11 -9 -11 -16 0 -7 -7 -21 -16 -32 -14 -18 -15 -16 -10 26 6 45 35 120
47 120 4 0 9 -7 12 -15z m-915 -1 c22 -6 22 -7 6 -25 -16 -18 -19 -18 -35 -3
-29 26 -15 39 29 28z m7786 0 c20 -8 11 -24 -13 -24 -15 0 -19 -18 -29 -152
-9 -114 -16 -156 -29 -170 -35 -39 -39 -23 -26 105 7 67 14 141 16 165 l5 42
-39 0 c-37 0 -51 15 -32 33 8 9 126 9 147 1z m-7865 -52 c6 -15 13 -39 17 -55
5 -22 3 -26 -10 -21 -18 7 -59 91 -51 105 9 14 33 -1 44 -29z m5196 -13 c0 -9
-13 -15 -37 -17 -28 -2 -38 1 -38 12 0 8 12 16 28 19 37 5 47 3 47 -14z m390
7 c0 -11 -54 -30 -62 -22 -3 3 0 13 7 21 14 17 55 17 55 1z m245 4 c-20 -13
-40 -13 -40 0 0 6 12 10 28 10 21 0 24 -2 12 -10z m-4790 -35 c0 -13 8 -29 18
-34 10 -5 31 -33 46 -61 24 -44 26 -55 17 -82 -6 -17 -11 -42 -11 -55 0 -31
-45 -119 -65 -126 -19 -8 -65 9 -65 24 0 6 6 9 13 6 21 -8 41 9 34 28 -5 11
-13 14 -27 10 -14 -4 -20 -2 -20 8 0 8 -7 21 -16 28 -14 11 -18 10 -34 -10
-31 -43 -39 -17 -20 68 14 64 25 89 57 128 22 26 43 61 47 76 8 33 26 27 26
-8z m4673 -73 c2 -100 -8 -126 -38 -96 -15 15 -17 29 -12 83 7 79 23 129 38
114 6 -6 11 -51 12 -101z m-5936 72 c-3 -3 -12 -4 -19 -1 -8 3 -5 6 6 6 11 1
17 -2 13 -5z m7439 -39 c-3 -10 1 -18 12 -22 23 -8 51 -44 52 -65 0 -9 7 -23
15 -32 9 -9 11 -17 5 -21 -5 -3 -10 -1 -10 4 0 6 -11 11 -25 11 -19 0 -25 -5
-23 -17 2 -12 -7 -21 -28 -28 -17 -5 -37 -15 -45 -21 -8 -7 -23 -13 -34 -16
-15 -2 -21 -12 -23 -41 -4 -41 -16 -48 -32 -18 -8 16 -6 22 7 29 14 8 15 13 5
24 -6 8 -8 18 -4 23 4 4 -2 5 -14 1 -23 -7 -89 16 -77 27 3 4 17 7 29 7 14 0
32 12 46 30 30 42 54 39 63 -6 l6 -37 30 33 c35 38 33 53 -7 60 -52 9 -41 59
12 60 12 0 24 7 28 15 3 8 8 15 12 15 3 0 3 -7 0 -15z m-6758 -43 c9 -5 30
-15 47 -23 39 -19 46 -49 12 -49 -54 0 -107 35 -107 71 0 11 25 12 48 1z
m7440 -68 c-3 -75 -13 -93 -47 -94 -18 0 -7 114 14 147 28 42 37 28 33 -53z
m-7240 55 c-2 -6 -8 -10 -13 -10 -5 0 -11 4 -13 10 -2 6 4 11 13 11 9 0 15 -5
13 -11z m-575 -35 c10 -4 16 -12 14 -18 -6 -19 -38 -19 -52 1 -15 20 -10 37 8
29 7 -4 20 -9 30 -12z m5791 -30 c9 -24 7 -79 -5 -126 -8 -32 -8 -51 0 -72 11
-27 14 -28 55 -22 49 8 71 -8 43 -29 -23 -17 -126 -19 -132 -3 -9 26 -12 99
-4 103 4 3 5 29 2 58 -7 74 22 140 41 91z m1016 7 c0 -12 -20 -25 -27 -18 -7
7 6 27 18 27 5 0 9 -4 9 -9z m-810 -55 c0 -35 -5 -58 -15 -66 -8 -7 -15 -19
-15 -27 0 -8 -7 -13 -17 -11 -15 3 -19 15 -21 65 -3 54 0 63 20 77 39 28 48
21 48 -38z m-5600 -8 c0 -13 -27 -9 -40 7 -19 23 -1 39 21 19 10 -9 19 -21 19
-26z m-220 10 c-1 -18 -26 -49 -33 -42 -7 8 14 54 25 54 4 0 8 -6 8 -12z
m7356 -75 c5 -26 1 -37 -20 -58 -14 -14 -31 -23 -36 -20 -15 9 -12 41 4 54 8
7 18 26 21 43 8 35 22 27 31 -19z m-7601 14 c0 -26 -20 -25 -23 2 -3 16 1 22
10 19 7 -3 13 -12 13 -21z m508 17 c9 -10 -4 -34 -19 -34 -8 0 -14 6 -14 13 0
22 19 35 33 21z m4714 -32 c8 -9 11 -23 7 -36 -9 -30 -13 -32 -32 -13 -14 14
-14 21 -5 37 8 12 9 21 3 25 -6 4 -7 11 -3 18 5 8 8 7 11 -3 3 -8 11 -21 19
-28z m-4787 2 c0 -8 -4 -12 -10 -9 -5 3 -10 10 -10 16 0 5 5 9 10 9 6 0 10 -7
10 -16z m3874 -60 c7 -17 0 -34 -14 -34 -11 0 -21 30 -14 41 8 14 21 11 28 -7z
m3159 0 c8 -8 -3 -34 -14 -34 -5 0 -9 9 -9 20 0 19 11 26 23 14z m-1365 -16
c-6 -18 -28 -21 -28 -4 0 9 7 16 16 16 9 0 14 -5 12 -12z m1179 -14 c37 -14
42 -20 38 -41 -7 -39 -45 -74 -45 -42 0 6 -13 28 -30 49 -16 21 -30 41 -30 44
0 10 22 7 67 -10z m-1047 -18 c0 -13 -41 -46 -58 -46 -5 0 -9 14 -9 30 0 27 3
30 34 30 21 0 33 -5 33 -14z m138 -23 c2 -20 -2 -32 -12 -36 -13 -5 -16 2 -16
34 0 48 23 50 28 2z m-5373 -52 c-13 -25 -59 -61 -79 -61 -13 0 -45 60 -40 74
7 18 59 22 69 6 13 -20 36 -9 48 23 10 28 12 29 15 10 2 -12 -4 -35 -13 -52z
m4725 59 c0 -5 -7 -10 -15 -10 -8 0 -15 5 -15 10 0 6 7 10 15 10 8 0 15 -4 15
-10z m374 -16 c4 -15 5 -29 1 -32 -3 -3 -5 1 -5 9 -1 9 -8 6 -20 -10 -23 -26
-50 -22 -50 8 0 36 12 51 40 51 22 0 29 -6 34 -26z m569 -14 c6 -23 -10 -37
-25 -22 -12 12 -4 42 11 42 5 0 11 -9 14 -20z m-5083 -48 c0 -51 -52 -126 -81
-119 -10 3 -17 1 -14 -3 8 -13 -9 -20 -24 -10 -10 5 -11 15 -5 33 10 29 100
137 115 137 5 0 9 -17 9 -38z m3974 13 c-7 -17 -54 -49 -61 -41 -10 10 38 65
52 60 7 -3 11 -12 9 -19z m316 3 c0 -20 -13 -33 -32 -34 -18 -2 -25 26 -11 39
11 12 43 8 43 -5z m440 -3 c0 -8 -4 -15 -10 -15 -5 0 -10 7 -10 15 0 8 5 15
10 15 6 0 10 -7 10 -15z m-72 -11 c24 -16 31 -67 11 -80 -18 -11 -43 23 -46
61 -2 39 3 42 35 19z m-983 -27 c34 -48 10 -70 -49 -47 -21 8 -26 16 -26 43 0
32 2 33 30 29 17 -2 37 -14 45 -25z m-416 -12 c18 -32 24 -35 63 -34 24 1 54
8 66 16 13 8 25 13 26 11 1 -2 19 -37 39 -78 50 -102 51 -120 7 -142 -19 -10
-45 -15 -57 -13 -12 3 -24 1 -27 -4 -3 -4 -19 -11 -34 -14 -18 -4 -31 -14 -35
-26 -4 -15 -14 -21 -36 -22 -17 -1 -37 -2 -43 -3 -14 -1 -14 7 -4 78 7 45 6
46 -18 46 -23 0 -26 4 -26 34 0 42 42 186 55 186 1 0 12 -16 24 -35z m1533 8
c-4 -26 16 -41 24 -19 10 25 82 21 111 -6 l23 -22 16 22 c9 13 26 22 41 22 25
0 26 -1 19 -59 -5 -47 -4 -60 8 -64 9 -4 13 -13 10 -22 -8 -20 -24 -19 -24 3
-1 16 -1 16 -11 0 -8 -15 -25 -18 -107 -18 -53 0 -104 4 -112 10 -9 5 -19 5
-27 -2 -18 -15 -30 19 -15 43 17 26 15 29 -13 29 -22 0 -25 4 -25 35 0 24 5
35 15 35 8 0 19 9 25 21 15 27 46 21 42 -8z m274 -58 c-7 -28 -26 -34 -26 -9
0 8 5 25 12 37 14 26 23 8 14 -28z m-501 25 c-3 -5 -10 -10 -16 -10 -5 0 -9 5
-9 10 0 6 7 10 16 10 8 0 12 -4 9 -10z m-966 -88 c-10 -31 -39 -45 -39 -20 0
12 41 60 47 55 2 -2 -2 -18 -8 -35z m-3659 -2 c0 -5 -5 -10 -11 -10 -5 0 -7 5
-4 10 3 6 8 10 11 10 2 0 4 -4 4 -10z m2532 -18 c30 -12 95 -110 129 -194 25
-60 48 -97 87 -138 67 -70 77 -92 62 -146 -10 -36 -9 -46 5 -68 10 -14 22 -26
29 -26 6 0 26 -20 44 -43 64 -84 80 -99 91 -93 7 5 8 13 2 23 -5 10 -3 26 8
44 16 28 15 29 -11 54 -16 14 -28 30 -28 36 0 5 -11 14 -25 19 -51 20 -41 63
18 75 43 9 76 31 87 58 6 15 9 -9 9 -75 l1 -98 26 0 c14 0 34 -5 45 -11 18 -9
19 -12 6 -27 -8 -9 -17 -26 -19 -37 -2 -15 -11 -20 -36 -20 -35 0 -55 -20 -46
-47 2 -9 0 -19 -6 -23 -31 -19 11 -58 56 -49 32 6 34 5 34 -21 0 -31 -76 -145
-96 -145 -9 0 -14 -12 -14 -32 0 -29 6 -23 70 68 107 150 170 229 186 232 19
5 18 -4 -7 -55 -12 -24 -19 -46 -16 -49 10 -11 149 -6 160 5 8 8 -7 11 -53 11
-59 1 -63 2 -46 15 13 10 44 15 93 15 70 0 73 -1 63 -19 -13 -26 -13 -61 1
-61 12 0 41 29 66 68 9 12 24 22 34 22 15 0 17 -5 13 -30 -6 -27 -4 -30 17
-30 13 0 38 4 55 9 38 11 45 6 78 -41 19 -29 23 -45 19 -77 -3 -23 -11 -41
-17 -41 -6 0 -3 -5 7 -11 37 -22 14 -49 -42 -49 -15 0 -32 -5 -39 -12 -8 -8
-15 -8 -24 0 -15 12 -214 20 -225 8 -5 -4 -6 -35 -5 -68 4 -57 3 -59 -16 -49
-11 6 -22 21 -24 33 -3 19 -12 11 -57 -50 -29 -40 -58 -71 -65 -69 -21 7 -18
37 8 70 15 17 30 37 34 42 21 27 23 37 9 53 -8 9 -18 37 -22 62 -5 37 -3 50
14 72 32 40 27 58 -13 58 -19 0 -41 3 -50 6 -19 7 -53 -29 -139 -143 -33 -46
-65 -83 -69 -83 -4 0 -8 11 -8 25 0 17 -4 23 -14 19 -23 -9 -46 -65 -65 -162
-10 -51 -21 -95 -24 -98 -8 -9 -118 34 -151 59 -58 45 -80 51 -216 60 -74 4
-154 10 -177 11 -24 2 -55 11 -70 21 l-27 18 23 9 c13 4 83 7 156 6 106 -2
139 0 166 14 19 9 53 21 77 28 33 8 45 18 56 43 23 57 116 116 116 75 0 -6 13
3 30 21 23 27 28 40 23 65 -3 17 -9 34 -12 39 -9 9 -67 -19 -92 -44 -11 -11
-26 -19 -34 -19 -9 0 -26 -7 -39 -16 -34 -21 -130 -16 -134 8 -2 12 8 22 30
31 28 12 36 22 45 58 36 141 37 143 71 160 37 17 52 35 52 63 0 16 -5 18 -36
13 -41 -7 -76 13 -169 96 l-50 45 -1 73 c0 75 -18 149 -35 149 -5 0 -9 7 -9
15 0 7 -6 18 -14 22 -8 4 -19 33 -24 63 -10 52 -9 56 16 83 25 27 50 32 84 19z
m-2299 -87 c19 -39 42 -86 50 -106 l15 -36 -34 7 c-19 5 -44 5 -56 2 -13 -3
-19 -1 -15 5 3 5 2 49 -3 98 -8 77 -6 114 5 103 2 -2 19 -35 38 -73z m5097 -5
c0 -5 -5 -10 -11 -10 -5 0 -7 5 -4 10 3 6 8 10 11 10 2 0 4 -4 4 -10z m-5190
-28 c0 -5 -7 -17 -15 -28 -14 -19 -14 -19 -15 2 0 11 3 24 7 27 9 10 23 9 23
-1z m3370 -38 c0 -16 -26 -19 -35 -4 -3 6 -4 14 0 20 8 13 35 1 35 -16z
m-5160 -21 c-1 -11 -26 -43 -34 -43 -10 0 -7 25 6 38 13 13 28 16 28 5z m80
-18 c0 -8 -4 -15 -9 -15 -13 0 -22 16 -14 24 11 11 23 6 23 -9z m4897 -19 c-4
-9 -11 -16 -17 -16 -11 0 -14 33 -3 43 11 11 26 -10 20 -27z m-5462 -56 c3 -5
1 -10 -4 -10 -6 0 -11 5 -11 10 0 6 2 10 4 10 3 0 8 -4 11 -10z m8080 0 c3 -5
-1 -10 -10 -10 -9 0 -13 5 -10 10 3 6 8 10 10 10 2 0 7 -4 10 -10z m75 -10 c0
-5 -4 -10 -9 -10 -6 0 -13 5 -16 10 -3 6 1 10 9 10 9 0 16 -4 16 -10z m-2711
-19 c19 -12 23 -257 4 -273 -22 -18 -36 2 -29 43 5 28 1 49 -15 78 -16 32 -19
49 -13 88 9 66 23 83 53 64z m356 -61 c0 -13 -6 -25 -12 -27 -9 -3 -13 6 -13
27 0 21 4 30 13 28 6 -3 12 -15 12 -28z m-175 -104 c0 -38 -15 -55 -33 -37 -6
6 -19 11 -28 11 -30 0 -27 24 5 41 47 25 56 23 56 -15z m164 -51 c-4 -8 1 -18
10 -21 19 -7 22 -44 3 -44 -18 0 -41 45 -33 65 3 9 1 25 -4 36 -6 11 -8 24 -4
30 9 15 35 -47 28 -66z m-1221 41 c9 -7 17 -23 17 -35 0 -17 -6 -21 -29 -21
-42 0 -77 41 -54 63 11 11 47 7 66 -7z m-233 -51 c0 -8 -7 -15 -15 -15 -16 0
-20 12 -8 23 11 12 23 8 23 -8z m-2360 -295 c-6 -216 -4 -284 6 -315 7 -21 12
-41 10 -43 -2 -1 -14 10 -28 26 -21 25 -24 38 -22 97 2 37 5 70 8 73 8 7 8
262 0 262 -7 0 -45 -46 -46 -57 0 -4 -12 -25 -24 -45 -13 -21 -24 -41 -24 -46
0 -5 -9 -17 -20 -27 -11 -10 -20 -28 -20 -39 0 -12 -16 -50 -35 -86 -32 -59
-43 -82 -79 -159 -10 -23 -11 -23 -19 10 -5 19 -7 58 -4 88 3 30 1 92 -4 139
-8 60 -8 87 0 95 8 8 11 5 11 -11 0 -26 -1 -26 38 -6 37 18 38 21 16 45 -13
14 -21 16 -35 8 -15 -7 -17 -6 -13 6 10 25 -4 62 -26 68 -26 7 -26 37 1 90 46
91 49 92 182 92 110 0 117 1 117 20 1 16 2 17 9 5 4 -8 5 -139 1 -290z m3710
246 c0 -15 -37 -32 -47 -22 -9 8 17 36 33 36 8 0 14 -6 14 -14z m260 -7 c0
-12 -7 -19 -19 -19 -38 0 -40 34 -2 37 15 1 21 -4 21 -18z m731 -26 c-9 -16
-10 -15 -11 8 0 14 3 29 8 33 12 12 14 -22 3 -41z m-1051 28 c0 -5 -7 -14 -15
-21 -18 -15 -42 1 -31 19 8 13 46 15 46 2z m1398 -26 c18 -40 15 -55 -12 -55
-31 0 -39 13 -31 50 8 37 28 39 43 5z m197 -6 c9 -17 15 -32 13 -33 -49 -31
-81 -22 -92 25 -7 32 -1 39 35 39 22 0 32 -7 44 -31z m1326 18 c-1 -4 -1 -14
-1 -22 0 -8 -4 -15 -9 -15 -12 0 -23 29 -15 41 6 11 26 8 25 -4z m-4193 -97
c0 -38 5 -85 12 -104 14 -44 6 -60 -27 -51 -19 4 -32 0 -49 -16 -13 -12 -30
-19 -38 -16 -17 7 -86 -57 -86 -79 0 -8 -2 -14 -4 -14 -2 0 -11 -3 -20 -6 -21
-8 -22 38 -2 56 8 6 13 17 10 24 -3 7 6 26 19 42 13 16 28 40 32 53 4 13 28
46 54 72 25 27 56 62 69 79 13 16 25 30 27 30 2 0 3 -31 3 -70z m2957 50 c3
-5 2 -10 -4 -10 -5 0 -13 5 -16 10 -3 6 -2 10 4 10 5 0 13 -4 16 -10z m-619
-104 c14 -16 37 -38 51 -49 25 -20 26 -20 39 -2 14 18 14 18 29 -1 17 -22 19
-50 5 -59 -5 -3 -10 -19 -10 -35 0 -16 -4 -32 -10 -35 -5 -3 -10 -15 -10 -26
0 -10 -5 -19 -12 -19 -7 0 -2 -10 10 -22 20 -20 23 -21 37 -7 13 12 14 21 5
43 -20 53 -13 72 41 112 28 22 63 58 78 81 l28 43 22 -108 c12 -59 24 -115 26
-125 4 -21 -45 -50 -69 -41 -12 5 -15 2 -10 -10 3 -9 -1 -32 -11 -52 -21 -46
-29 -94 -21 -138 5 -28 15 -39 55 -60 48 -25 49 -25 66 -6 13 15 22 17 36 9
11 -5 19 -17 19 -27 1 -34 57 -177 70 -177 7 0 20 20 30 45 22 56 35 60 50 15
12 -37 83 -118 110 -127 13 -4 13 -7 1 -21 -10 -13 -31 -17 -96 -17 l-82 0 -1
-52 c-1 -48 22 -190 34 -209 2 -4 36 -8 75 -7 40 0 75 -4 82 -11 8 -8 -8 -11
-60 -11 -96 0 -105 -18 -11 -22 l73 -3 1 -70 c1 -67 3 -70 35 -94 54 -40 79
-70 73 -86 -4 -8 -10 -15 -15 -15 -21 0 -82 44 -139 99 -34 32 -76 65 -93 72
-18 7 -38 17 -45 23 -8 5 -31 19 -52 30 -21 12 -63 38 -94 60 -56 38 -56 38
-36 56 23 20 18 35 -34 103 -37 48 -60 48 -72 0 l-10 -38 -14 27 c-10 22 -15
24 -25 14 -7 -7 -15 -23 -17 -35 -3 -19 -5 -20 -21 -9 -11 9 -20 36 -26 83 -8
63 -22 150 -66 405 -8 47 -28 184 -46 305 -28 198 -30 224 -18 265 l14 45 3
-39 c2 -24 14 -52 28 -70z m-642 -12 c12 -11 13 -20 6 -34 -14 -26 -10 -90 7
-90 16 0 16 -2 -1 -42 -8 -18 -20 -48 -26 -65 -17 -46 -30 -32 -30 33 0 38 -5
59 -17 72 -12 12 -19 37 -22 80 l-3 62 35 0 c20 0 43 -7 51 -16z m-4016 -65
c-21 -14 -28 -11 -28 12 0 12 8 28 18 35 15 11 17 10 20 -13 2 -14 -2 -30 -10
-34z m3822 51 c0 -5 -4 -10 -9 -10 -6 0 -13 5 -16 10 -3 6 1 10 9 10 9 0 16
-4 16 -10z m392 -33 c-12 -13 -22 -31 -22 -40 0 -25 -37 -21 -46 5 -4 12 -2
24 3 25 6 2 19 10 29 18 10 8 28 15 38 15 18 0 18 -1 -2 -23z m2451 -16 c4
-18 7 -40 5 -49 -3 -15 -5 -14 -15 3 -5 11 -13 35 -17 53 -8 45 15 38 27 -7z
m-2315 1 c2 -7 -3 -12 -12 -12 -9 0 -16 7 -16 16 0 17 22 14 28 -4z m2002 -12
c0 -16 -4 -30 -10 -30 -11 0 -14 43 -3 53 11 12 13 8 13 -23z m-2092 -11 c-10
-5 -18 -17 -18 -25 0 -12 9 -14 45 -8 l45 6 -3 -63 -3 -64 -59 -3 c-33 -1 -70
-8 -83 -14 -19 -10 -26 -8 -46 11 -15 14 -26 19 -31 12 -8 -14 -42 -14 -50 0
-4 6 2 20 13 32 11 12 22 35 24 51 3 25 7 29 36 30 38 1 39 -2 10 -40 -23 -28
-32 -54 -20 -54 4 0 20 9 36 19 22 15 42 18 85 16 31 -2 45 -2 31 1 -14 3 -29
10 -34 15 -6 5 -18 9 -28 9 -10 0 -18 6 -18 13 0 13 59 66 75 66 6 0 2 -4 -7
-10z m-4668 -152 c3 -34 5 -123 5 -197 0 -116 -3 -139 -19 -163 -25 -36 -44
-71 -100 -182 l-45 -90 -2 -125 c0 -69 -5 -133 -11 -143 -15 -29 -97 -60 -127
-48 -14 5 -41 9 -59 9 -19 -1 -37 3 -40 8 -4 5 -19 15 -34 21 -27 12 -38 33
-18 33 5 0 7 7 4 15 -4 8 1 17 9 21 8 3 18 20 21 37 3 18 20 48 36 67 17 19
35 52 41 73 5 20 14 37 19 37 9 0 171 158 198 193 32 42 44 92 40 158 -4 46
-1 71 8 84 8 10 14 27 14 37 0 23 20 24 21 1 0 -15 2 -15 9 2 12 28 12 37 0
30 -14 -9 -12 41 3 66 8 15 9 23 1 26 -10 3 4 93 16 93 3 0 7 -28 10 -63z
m629 -72 c-1 -36 -28 36 -28 75 l0 35 15 -45 c7 -25 13 -54 13 -65z m-359 49
c0 -13 -4 -24 -9 -24 -11 0 -21 25 -21 52 0 17 3 18 15 8 8 -7 15 -23 15 -36z
m2190 -45 c0 -67 -14 -72 -23 -8 -6 44 -1 69 14 69 5 0 9 -27 9 -61z m118 -13
c20 -13 58 -32 84 -42 45 -18 88 -66 69 -78 -5 -3 -6 -21 -2 -39 5 -18 6 -42
5 -54 -2 -12 8 -33 26 -51 17 -18 25 -34 19 -37 -5 -4 -17 -24 -25 -44 -18
-45 -39 -48 -54 -8 -5 17 -13 27 -16 24 -9 -9 -26 12 -53 66 -13 26 -39 64
-56 85 -43 50 -54 72 -65 133 -15 77 1 87 68 45z m-2108 -45 c0 -14 -18 -23
-30 -16 -6 4 -8 11 -5 16 8 12 35 12 35 0z m3042 -113 c13 -20 18 -20 58 -10
25 6 46 10 47 8 2 -1 -11 -24 -27 -50 -17 -25 -30 -55 -30 -65 0 -16 -37 -41
-61 -41 -5 0 -14 11 -19 25 -5 14 -14 25 -20 25 -12 0 -13 41 -1 72 5 13 12
31 15 41 7 23 21 22 38 -5z m378 -94 l0 -94 -26 0 -27 0 8 92 c6 86 17 114 37
102 4 -3 8 -48 8 -100z m1170 -45 c0 -4 -9 -5 -20 -2 -11 3 -20 12 -20 19 0
12 4 12 20 2 11 -7 20 -16 20 -19z m-3667 -2 c3 -7 -1 -26 -8 -42 l-13 -30 -1
43 c-1 40 11 57 22 29z m5167 -2 c0 -13 25 -71 35 -83 6 -7 50 22 68 45 10 12
26 23 35 23 11 0 13 -3 6 -8 -6 -4 -14 -25 -18 -46 -4 -22 -15 -57 -23 -79
-14 -35 -19 -38 -44 -33 -17 3 -32 0 -39 -9 -9 -11 -45 -12 -183 -9 -95 3
-183 9 -197 13 -14 5 -51 17 -82 26 -32 9 -60 21 -64 26 -3 5 -13 9 -23 9 -10
0 -26 9 -36 20 -29 32 -35 24 -35 -45 0 -36 -3 -65 -7 -66 -48 -7 -73 -5 -77
7 -3 8 -11 14 -18 14 -21 1 -65 41 -50 47 6 2 12 14 12 25 0 11 14 39 32 62
63 81 33 75 389 76 284 0 319 -1 319 -15z m537 -20 c6 -14 8 -27 4 -29 -9 -6
-61 41 -54 48 14 14 39 4 50 -19z m-119 -52 c-4 -22 -22 -20 -26 1 -2 10 3 16
13 16 10 0 15 -7 13 -17z m-3219 -44 c33 -27 34 -31 25 -66 l-9 -38 -78 -3
c-110 -4 -123 10 -91 95 l16 42 52 0 c41 -1 58 -7 85 -30z m111 21 c0 -5 -4
-10 -10 -10 -5 0 -10 5 -10 10 0 6 5 10 10 10 6 0 10 -4 10 -10z m1207 -12
c-3 -8 -6 -5 -6 6 -1 11 2 17 5 13 3 -3 4 -12 1 -19z m-5495 -57 c-2 -52 -10
-78 -40 -135 -21 -39 -37 -78 -35 -88 2 -9 -7 -27 -21 -41 l-25 -25 -38 33
c-34 30 -37 36 -25 54 6 12 18 31 25 44 6 12 15 24 18 27 3 3 8 10 10 15 2 6
27 50 54 98 62 108 81 112 77 18z m4287 -15 c15 -18 3 -48 -18 -44 -21 4 -28
58 -8 58 8 0 20 -6 26 -14z m126 -144 c-8 -8 -25 10 -19 20 4 6 9 5 15 -3 4
-7 6 -15 4 -17z m-4606 -147 c12 -24 12 -30 0 -39 -18 -14 -39 -74 -32 -92 3
-8 -1 -14 -11 -14 -9 0 -16 -8 -16 -20 0 -13 -7 -20 -20 -20 -11 0 -20 -7 -20
-15 0 -10 -10 -15 -30 -15 -35 0 -36 4 -10 58 11 22 20 48 20 55 0 8 6 17 13
20 8 3 27 30 43 61 16 31 34 55 39 53 6 -2 16 -16 24 -32z m1521 -5 c0 -11 -4
-20 -9 -20 -14 0 -23 18 -16 30 10 17 25 11 25 -10z m4915 -91 c0 -34 -4 -44
-17 -47 -15 -3 -18 4 -18 41 0 24 3 47 7 51 16 16 28 -4 28 -45z m101 -47
c-12 -11 -18 7 -10 30 l8 23 4 -23 c2 -13 1 -26 -2 -30z m-6324 12 c35 -18 34
-39 -5 -68 -22 -16 -47 -22 -108 -25 -48 -2 -79 1 -79 7 0 5 7 13 16 16 10 4
14 12 9 23 -4 12 4 26 27 46 28 23 39 27 72 22 21 -3 51 -12 68 -21z m224 -60
c-5 -18 -13 -24 -35 -24 -16 0 -34 7 -41 15 -7 9 -21 13 -31 10 -11 -4 -21 1
-28 13 -9 18 -3 22 62 43 l72 24 3 -29 c2 -16 1 -39 -2 -52z m6181 -6 c-3 -7
-5 -2 -5 12 0 14 2 19 5 13 2 -7 2 -19 0 -25z m-5920 -50 c-3 -7 -5 -2 -5 12
0 14 2 19 5 13 2 -7 2 -19 0 -25z m-184 -15 c-7 -2 -19 -2 -25 0 -7 3 -2 5 12
5 14 0 19 -2 13 -5z m1131 -41 c26 -39 33 -67 17 -76 -4 -3 -20 22 -34 54 -29
68 -22 78 17 22z m-1463 -72 c-9 -23 -10 -23 -10 12 -1 20 2 45 7 55 6 14 8
12 10 -12 2 -17 -1 -42 -7 -55z m1099 0 c0 -5 -11 -10 -25 -10 -14 0 -25 5
-25 10 0 6 11 10 25 10 14 0 25 -4 25 -10z m285 -20 c3 -5 1 -10 -4 -10 -6 0
-11 5 -11 10 0 6 2 10 4 10 3 0 8 -4 11 -10z m-395 -50 c-11 -28 -29 -63 -39
-78 -10 -15 -36 -54 -57 -87 -20 -33 -39 -54 -41 -48 -3 7 5 28 16 47 29 46
26 56 -13 56 -18 0 -48 3 -65 6 -28 6 -31 10 -31 43 0 51 10 61 61 62 78 2 79
2 79 -33 0 -61 15 -65 45 -12 63 111 76 124 45 44z m220 -9 c0 -18 -10 -42
-25 -58 -23 -26 -24 -27 -25 -7 0 12 6 27 14 33 8 7 17 23 20 36 9 34 16 31
16 -4z m-993 -33 c-3 -8 -6 -5 -6 6 -1 11 2 17 5 13 3 -3 4 -12 1 -19z m852
-35 c-35 -64 -56 -90 -64 -81 -10 10 12 52 50 96 20 23 39 42 42 42 2 0 -10
-26 -28 -57z m-1003 -5 c9 -15 -27 -41 -39 -29 -13 13 -1 41 17 41 8 0 18 -5
22 -12z m54 2 c0 -5 -4 -10 -10 -10 -5 0 -10 5 -10 10 0 6 5 10 10 10 6 0 10
-4 10 -10z m-730 -36 c0 -22 -2 -25 -15 -14 -8 7 -15 19 -15 26 0 8 7 14 15
14 10 0 15 -10 15 -26z m200 -28 c0 -8 -4 -18 -10 -21 -5 -3 -10 3 -10 14 0
12 5 21 10 21 6 0 10 -6 10 -14z m-225 -96 c4 -16 18 -38 32 -48 48 -35 39
-184 -14 -219 -21 -14 -25 -14 -47 1 -38 24 -86 100 -86 136 0 16 11 48 25 70
14 22 25 44 25 49 0 9 39 39 52 40 3 1 9 -12 13 -29z m345 9 c0 -5 -4 -9 -10
-9 -5 0 -10 7 -10 16 0 8 5 12 10 9 6 -3 10 -10 10 -16z m3460 -65 c10 -33 23
-71 30 -84 17 -32 1 -40 -86 -40 -54 0 -75 -4 -85 -16 -17 -20 -15 -152 6
-389 8 -93 15 -217 15 -276 0 -119 4 -139 30 -139 9 0 33 -15 52 -34 23 -22
49 -36 76 -41 64 -10 64 -14 36 -223 l-7 -53 28 11 c39 15 165 48 245 65 36 8
98 25 139 39 40 14 85 26 98 26 13 0 32 4 42 10 10 5 65 16 122 25 80 12 111
13 139 4 37 -12 90 -55 90 -73 0 -6 14 -26 30 -44 16 -19 44 -69 61 -112 l32
-78 53 -7 c61 -7 99 -33 107 -72 7 -36 -1 -53 -24 -53 -11 0 -36 -7 -55 -15
-39 -16 -38 -11 -15 -100 8 -31 7 -59 -6 -122 -8 -46 -20 -83 -26 -83 -5 0 -7
13 -5 30 l4 29 -140 -4 c-78 -3 -159 -7 -181 -11 -22 -3 -77 -5 -122 -6 -46 0
-81 -3 -78 -8 2 -4 46 -13 97 -20 141 -19 155 -20 267 -25 123 -6 135 -13 152
-91 17 -73 0 -131 -39 -140 -15 -3 -46 -14 -69 -25 -32 -14 -66 -19 -135 -19
-144 0 -139 -16 7 -25 160 -9 176 -19 183 -114 5 -66 -10 -111 -36 -111 -8 0
-27 -14 -43 -31 -23 -25 -40 -32 -95 -40 -37 -5 -82 -18 -100 -29 -36 -23
-110 -24 -132 -2 -7 6 -27 12 -43 12 -16 0 -38 9 -49 20 -17 17 -32 20 -99 19
-44 -1 -84 2 -90 6 -6 3 -11 24 -11 45 0 21 -4 41 -9 45 -5 3 -13 31 -16 63
-8 70 -23 122 -36 122 -11 0 -79 137 -79 160 0 9 -13 30 -29 47 -45 50 -62
115 -63 242 0 113 -9 141 -43 141 -25 0 -55 81 -57 160 -2 41 1 84 5 95 6 18
1 23 -29 34 -19 7 -40 23 -46 36 -6 13 -16 21 -22 19 -6 -2 -29 11 -50 31 -37
33 -38 34 -34 10 10 -49 -56 -19 -80 38 -15 34 3 37 42 6 21 -17 26 -18 26 -5
0 9 -5 16 -11 16 -30 0 -66 70 -75 144 -4 31 -10 56 -14 56 -4 0 -7 39 -7 88
-1 100 -25 180 -64 210 -13 11 -60 31 -103 46 -59 21 -97 42 -150 86 -98 81
-166 143 -166 154 0 4 -11 17 -25 28 -29 23 -35 54 -7 43 56 -24 178 -8 247
31 22 13 59 26 83 30 23 4 48 14 55 24 7 9 34 29 60 45 27 15 54 36 60 46 7
11 15 19 20 19 4 0 23 7 43 15 19 8 38 15 42 16 4 2 13 9 21 16 7 8 22 11 32
8 14 -5 19 -1 19 14 0 12 -4 21 -9 21 -5 0 7 18 27 39 21 22 41 39 46 37 5 -1
17 -29 26 -62z m-3460 2 c0 -3 -4 -8 -10 -11 -5 -3 -10 -1 -10 4 0 6 5 11 10
11 6 0 10 -2 10 -4z m-509 -103 c-9 -16 -10 -16 -11 -1 0 9 3 25 7 35 7 16 8
17 11 1 2 -10 -1 -25 -7 -35z m4514 -84 c7 -22 45 -501 45 -571 0 -31 -4 -59
-8 -62 -5 -3 -46 -7 -93 -11 -46 -3 -127 -8 -179 -12 -52 -3 -124 -7 -159 -7
-61 -1 -65 0 -71 25 -4 14 -13 147 -19 295 -7 148 -14 279 -17 292 -7 36 3 38
276 58 47 4 87 8 89 10 2 2 32 3 67 2 49 -2 65 -6 69 -19z m495 2 c39 -8 53
-37 26 -57 -16 -11 -13 -44 5 -44 14 0 10 -39 -7 -65 -12 -18 -13 -28 -4 -44
6 -12 10 -54 8 -94 -2 -56 -6 -72 -18 -72 -8 0 -19 15 -25 33 -10 36 -22 40
-41 15 -13 -17 -15 -17 -34 6 -11 13 -22 22 -23 20 -1 -2 -1 -46 1 -98 3 -86
5 -92 18 -72 9 12 19 19 24 16 5 -3 12 6 16 20 7 28 25 32 44 10 19 -22 39
-18 46 10 17 69 34 -2 34 -147 l0 -98 -77 0 c-116 0 -121 3 -128 64 -5 48 -18
248 -31 505 l-6 113 69 -7 c37 -3 84 -10 103 -14z m-4919 -131 c26 -14 24 -28
-7 -52 -36 -29 -22 -35 17 -8 29 21 37 22 95 13 45 -6 75 -6 103 3 22 6 43 9
46 6 14 -14 1 -29 -42 -46 -26 -11 -57 -31 -70 -44 -17 -18 -34 -24 -78 -27
-34 -2 -75 -13 -107 -29 -29 -14 -56 -26 -60 -26 -4 0 -8 13 -8 29 0 22 10 38
37 60 21 17 33 31 27 31 -5 0 -15 -5 -22 -12 -16 -16 -24 -5 -17 25 6 21 53
87 63 87 2 0 12 -5 23 -10z m3069 -104 c17 -27 25 -44 16 -37 -14 12 -81 107
-99 140 -17 31 53 -55 83 -103z m-3197 79 c-3 -9 -8 -14 -10 -11 -3 3 -2 9 2
15 9 16 15 13 8 -4z m1116 -16 c-8 -5 -25 -8 -39 -8 -24 1 -24 1 5 14 31 14
57 9 34 -6z m-1169 -48 c-12 -23 -30 -36 -30 -22 0 10 27 41 36 41 3 0 0 -9
-6 -19z m35 -74 c-25 -75 -29 -80 -59 -88 -25 -7 -66 12 -66 31 0 3 30 37 68
75 75 78 87 74 57 -18z m855 59 c0 -19 3 -37 8 -39 8 -5 149 19 194 33 17 5
30 4 34 -2 3 -5 -17 -56 -45 -114 -28 -57 -51 -109 -51 -116 0 -8 -11 -30 -25
-51 -14 -20 -30 -63 -36 -94 -9 -52 -25 -91 -79 -188 -9 -17 -20 -59 -23 -95
-3 -36 -19 -99 -34 -140 l-29 -75 -99 -1 c-210 -2 -439 -16 -460 -29 -24 -15
-193 -50 -202 -41 -3 3 0 12 7 21 11 13 -1 15 -109 15 -95 0 -121 3 -121 14 0
7 22 69 49 137 26 68 57 149 67 179 l19 55 122 5 c67 3 125 8 129 13 4 4 -1
14 -12 21 -10 8 -15 18 -11 22 4 5 16 3 25 -4 75 -54 73 -54 152 -46 41 4 86
7 100 5 125 -9 213 -12 256 -6 l52 6 7 187 c4 103 12 196 18 206 5 11 25 35
43 54 19 19 31 38 28 43 -7 12 6 59 17 59 5 0 9 -15 9 -34z m-239 -16 c16 0
29 -4 29 -9 0 -14 -80 -18 -90 -5 -12 14 -1 26 18 19 7 -3 27 -5 43 -5z m2689
-10 c7 -13 7 -20 1 -20 -6 0 -15 9 -21 20 -7 13 -7 20 -1 20 6 0 15 -9 21 -20z
m-3385 -19 c-3 -6 -11 -11 -17 -11 -6 0 -6 6 2 15 14 17 26 13 15 -4z m519 3
c4 -10 13 -13 25 -9 11 3 22 1 26 -5 4 -6 -5 -10 -23 -10 -21 0 -31 -6 -35
-20 -4 -17 -14 -20 -67 -20 -54 0 -61 2 -50 15 8 10 30 15 61 15 26 0 51 5 54
10 3 6 1 10 -4 10 -6 0 -11 7 -11 15 0 20 16 19 24 -1z m116 -76 c0 -5 -4 -8
-10 -8 -17 0 -32 41 -25 68 7 26 7 26 21 -13 7 -22 14 -43 14 -47z m-287 35
c-7 -2 -21 -2 -30 0 -10 3 -4 5 12 5 17 0 24 -2 18 -5z m-388 -76 c5 -17 3
-27 -4 -27 -15 0 -31 34 -31 67 0 27 0 27 14 7 8 -11 18 -33 21 -47z m5110
-12 c0 -10 -6 -20 -12 -22 -8 -3 -13 5 -13 22 0 17 5 25 13 23 6 -3 12 -13 12
-23z m-5160 -45 c-3 -6 -10 -10 -16 -10 -10 0 -12 33 -2 44 9 9 26 -22 18 -34z
m721 -158 c-10 -10 -29 15 -21 28 6 9 10 8 17 -4 6 -10 7 -20 4 -24z m-707
-37 c1 -23 -2 -26 -9 -15 -5 8 -9 31 -9 50 0 29 2 31 9 15 5 -11 9 -33 9 -50z
m-34 -117 c49 4 75 -6 75 -27 0 -38 -104 -310 -133 -348 -5 -7 -27 -13 -48
-13 -36 0 -39 2 -39 28 1 67 58 343 75 362 14 15 21 17 26 8 4 -7 24 -11 44
-10z m6335 -313 c0 -8 -4 -15 -10 -15 -5 0 -10 7 -10 15 0 8 5 15 10 15 6 0
10 -7 10 -15z m-2162 -61 c20 -10 32 -23 32 -35 0 -32 -40 -20 -61 19 -21 36
-16 39 29 16z m-4138 -190 c0 -8 -5 -12 -10 -9 -6 4 -8 11 -5 16 9 14 15 11
15 -7z m7310 1 c0 -12 -5 -13 -17 -7 -10 5 -25 12 -33 15 -8 3 0 6 18 6 22 1
32 -4 32 -14z m265 -16 c16 -8 15 -9 -10 -5 -16 2 -37 1 -45 -3 -8 -4 -26 -2
-40 5 -24 13 -22 14 25 13 28 0 59 -5 70 -10z m-6681 -36 c-8 -44 -20 -63 -42
-63 -12 0 -13 8 -8 42 8 52 12 58 37 58 18 0 19 -4 13 -37z m6326 -12 c0 -5
-9 -11 -21 -14 -12 -3 -18 -10 -14 -16 3 -7 -2 -11 -14 -11 -33 0 -27 38 7 43
15 2 30 5 35 6 4 0 7 -3 7 -8z m599 -7 c23 -5 30 -11 26 -23 -2 -9 0 -23 5
-31 8 -13 11 -12 23 3 12 17 14 17 26 3 26 -32 6 -46 -64 -46 -53 0 -67 3 -72
18 -10 25 -23 32 -73 33 -25 1 -36 3 -25 6 42 10 38 23 -8 23 -26 0 -47 5 -47
10 0 11 158 14 209 4z m-389 -144 c0 -5 -2 -10 -4 -10 -3 0 -8 5 -11 10 -3 6
-1 10 4 10 6 0 11 -4 11 -10z m235 -50 c8 -13 -5 -13 -25 0 -13 8 -13 10 2 10
9 0 20 -4 23 -10z m-186 -54 c9 -11 5 -16 -18 -26 -24 -10 -42 -8 -108 10 -43
12 -80 24 -82 26 -2 2 41 4 96 4 73 0 104 -4 112 -14z m271 -15 c43 -7 44 -8
20 -18 -14 -6 -34 -23 -45 -38 -11 -14 -38 -35 -60 -45 -40 -19 -40 -19 -50 2
-6 15 -4 28 8 50 14 25 15 30 2 35 -9 3 -24 3 -35 0 -10 -3 -24 1 -31 9 -10
12 1 14 67 13 44 0 99 -4 124 -8z m-7380 -20 c0 -5 -9 -19 -20 -32 -21 -26
-27 -11 -10 22 11 19 30 26 30 10z m363 -52 c4 -14 -8 -40 -35 -80 -49 -71
-47 -69 -101 -76 -23 -2 -44 -6 -46 -9 -9 -9 -31 20 -31 41 0 35 36 72 88 91
26 10 58 26 72 35 33 24 46 23 53 -2z m6728 -41 c25 -20 53 -32 83 -35 26 -3
52 -13 62 -24 9 -11 26 -19 36 -19 26 0 142 -37 203 -66 28 -12 86 -36 130
-52 44 -17 88 -33 98 -37 11 -5 17 -18 17 -36 0 -16 4 -29 8 -29 4 0 8 -12 7
-27 0 -20 6 -28 25 -33 23 -6 25 -11 25 -61 -1 -84 -11 -219 -18 -225 -3 -3
-14 -1 -24 4 -10 5 -45 14 -78 21 -33 7 -76 17 -96 22 -20 5 -47 9 -61 9 -13
0 -44 7 -69 15 -28 9 -116 18 -244 24 -242 10 -273 19 -290 77 -9 32 -9 55 3
116 l15 77 -32 55 c-17 31 -31 63 -31 71 0 29 18 15 40 -30 24 -50 40 -65 40
-39 0 10 6 33 12 52 12 32 11 35 -22 66 -19 18 -42 41 -50 51 -14 18 -14 18 8
3 13 -9 31 -26 39 -38 14 -20 16 -20 34 -4 15 13 19 31 19 77 l0 59 37 -7 c20
-3 53 -20 74 -37z m-7446 -154 c-3 -24 -10 -44 -16 -44 -11 0 -12 62 -2 111
l6 34 10 -28 c5 -16 6 -48 2 -73z m4361 -224 c32 0 45 -45 18 -65 -44 -33
-128 -6 -116 37 5 21 39 39 60 32 8 -2 24 -4 38 -4z m-843 -85 c4 -8 4 -36 0
-63 -5 -44 -3 -51 18 -66 31 -21 75 -21 88 2 8 14 12 15 22 5 10 -10 10 -13 1
-13 -10 0 -10 -5 -1 -21 8 -16 8 -23 -1 -29 -20 -12 30 -40 70 -40 28 0 44 -8
69 -34 24 -25 44 -36 70 -38 l36 -3 3 -80 c2 -44 4 -94 4 -112 3 -57 -21 -78
-106 -93 -54 -9 -86 -10 -115 -3 -50 13 -139 -3 -164 -28 -10 -11 -26 -19 -36
-19 -10 0 -32 -6 -48 -12 -49 -21 -153 -91 -153 -103 0 -12 -53 -55 -68 -55
-18 0 -47 -43 -47 -69 0 -24 -4 -27 -63 -36 -46 -7 -71 -17 -90 -36 -30 -28
-119 -89 -131 -89 -4 0 -16 -9 -26 -20 -10 -11 -24 -20 -32 -20 -16 0 -78 -39
-114 -71 -15 -13 -47 -41 -72 -62 -25 -20 -52 -49 -59 -64 -7 -15 -24 -33 -38
-39 -14 -7 -54 -26 -89 -43 -63 -30 -67 -31 -213 -31 -117 0 -157 -4 -184 -16
-23 -11 -43 -14 -62 -9 -49 13 -192 17 -206 6 -8 -7 -27 -11 -42 -10 -16 0
-54 -7 -84 -16 -82 -25 -126 -29 -178 -15 -26 7 -51 16 -57 20 -26 17 -172 47
-204 41 -8 -1 -10 2 -5 10 5 9 1 11 -15 6 -30 -8 -74 17 -102 58 -13 19 -27
35 -30 35 -4 0 -10 16 -13 35 -4 19 -11 35 -16 35 -6 0 -10 11 -10 24 0 14 -5
28 -10 31 -6 4 -8 11 -5 16 4 5 0 9 -7 10 -7 0 -26 16 -41 35 -34 40 -31 77
11 117 36 35 218 127 251 127 14 0 39 7 54 15 34 18 340 40 444 32 71 -5 176
13 198 34 5 5 18 9 30 9 31 0 151 43 237 83 42 21 83 37 91 37 8 0 22 9 31 19
11 12 25 17 39 14 18 -4 19 -3 7 6 -15 12 -11 12 65 -4 16 -4 24 -1 23 6 -2 7
12 12 36 13 32 1 42 6 55 28 27 46 161 136 215 145 38 6 63 18 106 49 78 56
89 67 95 94 7 31 37 63 75 80 47 21 75 40 72 50 -1 6 9 16 23 22 14 6 25 15
25 19 0 8 92 68 124 82 13 5 25 2 38 -10 21 -19 31 -22 103 -31 l50 -7 19 38
c19 40 30 46 39 22z m-3503 -59 c0 -13 -7 -29 -15 -36 -13 -11 -15 -8 -15 17
0 16 3 33 7 36 13 14 23 6 23 -17z m4777 -121 c6 -16 -23 -62 -47 -75 -13 -7
-25 -4 -44 11 -54 43 -10 110 56 87 16 -6 32 -16 35 -23z m-401 -61 c33 3 95
9 139 12 80 6 81 6 93 -20 22 -49 16 -74 -24 -91 -52 -21 -165 -20 -190 3 -30
27 -71 45 -88 39 -29 -11 -46 4 -46 38 0 38 17 49 41 28 13 -10 33 -13 75 -9z
m406 -249 c4 -16 11 -108 14 -204 l7 -174 -74 7 c-111 11 -106 4 -113 163 -4
76 -9 154 -12 174 -8 54 9 66 97 65 72 -1 73 -1 81 -31z m-500 -32 c30 -35 31
-62 3 -118 l-27 -53 20 -64 c11 -34 26 -87 32 -117 6 -30 24 -78 40 -106 37
-65 37 -76 1 -98 -41 -24 -226 -25 -235 -1 -11 29 -6 73 15 126 22 57 19 88
-11 118 -29 29 -27 97 5 140 14 18 28 50 31 69 8 46 20 69 52 98 30 27 53 29
74 6z m-4190 -127 c4 -52 -18 -59 -31 -9 -6 21 -11 49 -11 63 0 24 0 24 19 5
11 -11 21 -37 23 -59z m8189 1 c-13 -13 -26 -3 -16 12 3 6 11 8 17 5 6 -4 6
-10 -1 -17z m-41 -27 c-6 -11 -15 -20 -20 -20 -16 0 -11 18 8 29 24 14 24 14
12 -9z m-8107 -78 c-8 -59 -11 -66 -27 -53 -10 9 -15 8 -20 -4 -6 -17 -46 -21
-46 -5 0 6 11 22 25 36 14 14 25 28 25 31 0 12 33 42 41 38 4 -3 5 -22 2 -43z
m8023 -29 c-10 -26 -18 -8 -9 23 5 21 8 24 11 11 2 -10 1 -25 -2 -34z m217 25
c-24 -24 -37 -21 -27 6 3 9 16 16 27 16 l21 0 -21 -22z m-113 -17 c0 -11 -11
-32 -25 -47 -29 -31 -32 -20 -8 31 18 39 33 46 33 16z m229 -110 c15 -10 7
-31 -13 -31 -8 0 -19 -7 -26 -15 -16 -20 -50 -19 -50 1 0 19 39 53 60 54 8 0
21 -4 29 -9z m-8214 -131 c3 -5 1 -10 -4 -10 -6 0 -11 5 -11 10 0 6 2 10 4 10
3 0 8 -4 11 -10z m4089 -139 c4 -6 2 -29 -4 -51 -5 -22 -15 -58 -20 -80 -6
-22 -15 -40 -19 -40 -5 0 -22 20 -38 45 -15 25 -31 45 -35 45 -4 0 -14 -16
-22 -35 -21 -50 -45 -45 -71 18 -8 20 -19 37 -25 37 -7 0 -38 -37 -67 -79 -7
-11 -33 25 -39 54 -8 43 6 66 47 79 46 15 285 21 293 7z m476 -161 c0 -15 -7
-20 -25 -20 -18 0 -25 5 -25 20 0 15 7 20 25 20 18 0 25 -5 25 -20z"/>
<path d="M5010 7831 c0 -6 5 -13 10 -16 6 -3 10 1 10 9 0 9 -4 16 -10 16 -5 0
-10 -4 -10 -9z"/>
<path d="M1388 7683 c6 -2 18 -2 25 0 6 3 1 5 -13 5 -14 0 -19 -2 -12 -5z"/>
<path d="M1270 7660 c0 -12 37 -12 65 0 15 7 10 9 -22 9 -24 1 -43 -3 -43 -9z"/>
<path d="M1228 7643 c6 -2 18 -2 25 0 6 3 1 5 -13 5 -14 0 -19 -2 -12 -5z"/>
<path d="M5614 6399 c-3 -6 -2 -15 4 -21 7 -7 14 -3 21 11 10 17 9 21 -3 21
-8 0 -18 -5 -22 -11z"/>
<path d="M4976 5734 c-3 -8 0 -22 8 -30 19 -18 72 -18 79 1 8 19 -9 28 -39 21
-17 -5 -24 -2 -24 9 0 20 -16 19 -24 -1z"/>
<path d="M5647 5593 c-4 -3 -7 -15 -7 -26 0 -16 3 -17 15 -7 8 7 15 19 15 26
0 15 -12 19 -23 7z"/>
<path d="M5858 5583 c12 -2 30 -2 40 0 9 3 -1 5 -23 4 -22 0 -30 -2 -17 -4z"/>
<path d="M1955 5893 c-28 -31 -33 -76 -10 -99 12 -13 15 -12 25 5 5 11 10 30
10 43 0 13 7 32 15 42 14 19 12 36 -5 36 -5 0 -21 -12 -35 -27z"/>
<path d="M1871 5594 c0 -11 3 -14 6 -6 3 7 2 16 -1 19 -3 4 -6 -2 -5 -13z"/>
<path d="M7070 5570 c0 -22 1 -23 24 -14 23 9 20 34 -4 34 -13 0 -20 -7 -20
-20z"/>
<path d="M6968 5142 c-8 -28 9 -114 24 -123 18 -11 40 1 29 15 -7 8 -4 16 8
26 11 7 17 19 14 26 -2 6 0 15 6 19 22 13 11 35 -16 35 -26 0 -26 -1 -7 -15
14 -10 15 -14 4 -15 -8 0 -24 12 -36 27 -20 25 -21 26 -26 5z"/>
<path d="M7200 5139 c0 -17 40 -64 41 -48 1 8 2 21 3 29 0 8 -3 18 -9 22 -15
11 -35 9 -35 -3z"/>
<path d="M7241 5013 c-1 -12 4 -25 9 -28 12 -7 12 2 0 30 -8 19 -9 19 -9 -2z"/>
<path d="M6999 4996 c-1 -3 -1 -15 -1 -26 0 -52 1 -55 16 -40 22 23 24 64 4
68 -10 2 -18 1 -19 -2z"/>
<path d="M7240 4914 c0 -6 6 -31 13 -55 10 -31 11 -53 4 -73 -7 -21 -6 -32 7
-44 14 -14 17 -14 36 8 l21 25 -20 9 c-14 6 -22 22 -27 55 -6 41 -34 102 -34
75z"/>
<path d="M7730 5136 c0 -9 5 -16 10 -16 6 0 10 4 10 9 0 6 -4 13 -10 16 -5 3
-10 -1 -10 -9z"/>
<path d="M5250 2503 c-14 -3 -30 -9 -37 -15 -6 -5 -40 -9 -75 -8 -86 2 -89 1
-43 -16 79 -29 315 -43 374 -23 38 13 39 21 5 48 -23 18 -40 21 -113 20 -47
-1 -97 -4 -111 -6z"/>
<path d="M5160 1771 c0 -12 29 -23 42 -15 6 4 5 10 -3 15 -18 11 -39 11 -39 0z"/>
<path d="M5008 3736 c-15 -33 -4 -56 26 -56 34 0 48 46 21 67 -26 18 -34 17
-47 -11z"/>
<path d="M5023 3618 c-31 -19 -32 -21 -17 -43 11 -16 14 -43 12 -96 l-3 -74
-34 0 c-47 0 -61 25 -38 64 32 55 14 96 -39 89 -33 -4 -43 -23 -14 -31 27 -7
27 -52 0 -67 -30 -16 -43 -2 -37 41 5 41 -2 42 -50 12 -19 -12 -20 -18 -11
-44 11 -33 5 -59 -14 -59 -7 0 -28 14 -45 30 -32 30 -33 30 -68 16 -35 -15
-45 -31 -23 -38 17 -6 24 -134 8 -153 -7 -9 -10 -18 -8 -21 11 -11 60 9 73 30
12 17 22 21 49 18 25 -3 33 -8 29 -18 -4 -10 0 -12 11 -8 9 4 16 18 16 33 0
53 31 62 109 34 55 -19 92 -13 127 22 22 22 24 32 24 123 0 100 -7 163 -19
161 -3 0 -21 -10 -38 -21z m-278 -269 c8 -23 -7 -45 -24 -35 -12 8 -15 39 -4
49 12 12 22 7 28 -14z"/>
<path d="M4970 3150 c20 -13 40 -13 40 0 0 6 -12 10 -27 10 -22 0 -25 -2 -13
-10z"/>
<path d="M4750 3140 c0 -5 5 -10 10 -10 6 0 10 5 10 10 0 6 -4 10 -10 10 -5 0
-10 -4 -10 -10z"/>
<path d="M450 3420 c0 -5 -8 -10 -17 -10 -13 0 -14 -3 -6 -11 8 -8 17 -6 34
10 19 17 20 21 6 21 -9 0 -17 -4 -17 -10z"/>
<path d="M3844 1173 c-23 -25 -26 -35 -22 -84 3 -48 1 -59 -15 -69 -10 -6 -16
-14 -13 -17 3 -4 19 5 34 19 15 14 40 29 57 33 41 9 55 23 55 53 0 31 -37 92
-56 92 -8 0 -26 -12 -40 -27z"/>
<path d="M7686 1171 c-3 -5 3 -11 13 -14 14 -3 18 -1 14 9 -6 16 -19 18 -27 5z"/>
<path d="M7755 1140 c3 -5 10 -10 16 -10 5 0 9 5 9 10 0 6 -7 10 -16 10 -8 0
-12 -4 -9 -10z"/>
<path d="M7818 433 c7 -3 16 -2 19 1 4 3 -2 6 -13 5 -11 0 -14 -3 -6 -6z"/>
<path d="M7859 417 c6 -8 23 -17 37 -20 30 -5 21 4 -20 22 -25 10 -28 10 -17
-2z"/>
<path d="M7950 380 c0 -5 5 -10 11 -10 5 0 7 5 4 10 -3 6 -8 10 -11 10 -2 0
-4 -4 -4 -10z"/>
<path d="M7973 195 c-17 -25 -23 -50 -23 -89 0 -30 -4 -66 -10 -80 -9 -25 -8
-26 29 -26 82 0 111 36 111 139 0 78 -7 91 -49 91 -30 0 -40 -6 -58 -35z"/>
</g>
</svg>
